<svg id="Layer_1" data-name="Layer 1" xmlns="http://www.w3.org/2000/svg" xmlns:xlink="http://www.w3.org/1999/xlink" viewBox="0 0 432 540"><defs><style>.cls-1{fill:#ffd8e0;}.cls-2{fill:#f4f4f4;}</style></defs><title>image1</title><rect class="cls-1" x="32.5" y="51.5" width="366" height="336"/><rect class="cls-2" width="432" height="540"/><g id="Layer_2" data-name="Layer 2"><image width="750" height="750" transform="translate(36 36) scale(0.48)" xlink:href="images.jpg"/><path d="M29.69,480.67l5.69-49.42-10.79-.88L39.9,455.08c1.49,2.4,9.52,4.35,10.79.88l7.43-20.37-10.79-.88L60,468.93c1.15,3.09,11.89,3.5,10.68.23L58,434.95c-1-2.8-9.65-4-10.79-.88l-7.43,20.37,10.79.88L35.27,430.6c-1.24-2-10.36-4.57-10.79-.88L18.8,479.14c-.38,3.35,10.52,4.82,10.89,1.53Z"/><path d="M80.19,432.17c-5.17.37-11.11,2.74-14,7.21-6.11,9.41,1,24.75,9.14,30.61,8.69,6.22,21.5,6,30.09-.24s10.79-16.25,4.44-25c-5.67-7.8-15.75-12.74-25-14.87-1.48-.34-6-1.2-6.93.69s1.91,3.07,3.4,3.42c7.28,1.68,15.4,6,19.28,12.69,5.2,9-.26,19.27-9.79,22.32-10.72,3.43-17.23-15.23-15.68-23.27a10.48,10.48,0,0,1,6-7.64,9.45,9.45,0,0,1,4-1.12c1.81-.13,3.69-1.09,2.4-2.93s-5.38-2-7.33-1.89Z"/><path d="M107.58,425.19l5.69,44.33c.43,3.35,6.64,3.52,9.06,3l31.05-7.1c2.29-.52,2-2.13.47-3.31-1.92-1.5-5.44-1.6-7.7-1.08l-31.05,7.1,9.06,3-5.69-44.33c-.47-3.68-11.24-4.24-10.89-1.53Z"/><path d="M137.43,435.38l7,39.8c.5,2.84,7.11,2.7,9,2.31l28.86-6.12c2.31-.49,2-2.15.47-3.31-1.95-1.52-5.42-1.57-7.7-1.08l-28.86,6.12,9,2.31-7-39.8c-.53-3-11.34-4-10.68-.23Z"/><path d="M164.14,436.26l18.37,20.12c1.61,1.76,5.1,2.18,7.33,1.89,1.53-.2,4.07-1.11,2.4-2.93l-18.37-20.12c-1.61-1.76-5.1-2.18-7.33-1.89-1.53.2-4.07,1.11-2.4,2.93Z"/><path d="M185.39,480.67l17.49-45.48c1-2.61-9.56-5-10.89-1.53L174.5,479.14c-1,2.61,9.56,5,10.89,1.53Z"/><path d="M214.34,463.07l30-4.33c1.76-.25,3.74-1,2.4-2.93s-5.45-2.16-7.33-1.89l-30,4.33c-1.76.25-3.74,1-2.4,2.93s5.45,2.16,7.33,1.89Z"/><path d="M235.62,472l-6.14-29.37c-.64-3-11.45-3.94-10.68-.23l6.14,29.37c.64,3,11.45,3.94,10.68.23Z"/><path d="M261.58,476.46l8.06-41.83-10.79-.88,19.92,44.67c1.37,3.06,12,3.28,10.68.23L269.53,434c-1.08-2.42-10.13-4.3-10.79-.88l-8.06,41.83c-.61,3.16,10.24,4.92,10.89,1.53Z"/><path d="M281.64,455.59l-25.19,3.22c-1.77.23-3.73,1-2.4,2.93s5.43,2.13,7.33,1.89l25.19-3.22c1.77-.23,3.73-1,2.4-2.93s-5.43-2.13-7.33-1.89Z"/><path d="M285.25,433.75l10.26,47.89c.43,2,5.06,2.55,6.47,2.58,11.39.23,22.09-6.33,23.45-18.31,1.08-9.56-1.83-21-9.26-27.5-6.22-5.44-14.76-7.53-22.86-7.73a49.6,49.6,0,0,0-15.67,2c-2.18.68-2.09,2-.47,3.31,1.8,1.41,5.56,1.75,7.7,1.08,11.71-3.64,23.75-.4,28,12.66,2.72,8.33,3.43,20.36-4.33,26.35a16.6,16.6,0,0,1-6.79,3,20.2,20.2,0,0,0-2.1.26c-.7.16,1.26,0,0,0l6.47,2.58L295.93,434c-.65-3.05-11.47-3.92-10.68-.23Z"/><path d="M337.45,479.3l9.48-45.41L336.15,433l14.23,48.63c.9,3.09,11.7,3.72,10.68.23l-14.23-48.63c-.78-2.68-10.12-4.09-10.79-.88l-9.48,45.41c-.65,3.12,10.18,4.93,10.89,1.53Z"/><path d="M330.77,463.41l22.29,1.82c1.57.13,4.55-.25,4.21-2.35s-5.11-2.47-6.47-2.58l-22.29-1.82c-1.57-.13-4.55.25-4.21,2.35s5.11,2.47,6.47,2.58Z"/><path d="M371.6,476.46l4.74-42.56L365.56,433l16.6,26.47c1.61,2.57,9.24,4.2,10.79.88l12.33-26.47L394.48,433l12.8,48.63c.81,3.08,11.62,3.8,10.68.23l-12.8-48.63c-.82-3.1-9.48-3.68-10.79-.88L382,458.84l10.79.88-16.6-26.47c-1.24-2-10.37-4.58-10.79-.88l-4.74,42.56c-.37,3.35,10.53,4.81,10.89,1.53Z"/></g></svg>