<svg id="overlay_5" data-name="overlay 5" xmlns="http://www.w3.org/2000/svg" viewBox="0 0 432 540"><defs><style>.cls-1{fill:#a53c3c;}</style></defs><title>overlay5</title><path class="cls-1" d="M54.2,90.8h8.92a11.51,11.51,0,0,0,2.49,0H89.1c1.91,0,6.7-1.58,3-3.58L72.52,76.79l.26-.81,22.51-4.45c1.24-.24,2.62-1.61,1.25-2.72L79.65,55.22c.45-1.38.91-2.75,1.36-4.12.81-2.46-7.49-4.48-10.17-2.49a10.63,10.63,0,0,0-5.24-.69c-1.2.16-4.43,1.3-2.4,2.93L68.33,55q-2.85,8.6-5.68,17.18l-3.27.64c-2.05.41-2.34,2.31-.46,3.31L61,77.21c-1,2.89-1.91,5.78-2.87,8.66H51.94c-1.57,0-4.56.17-4.21,2.35C48.05,90.19,52.86,90.8,54.2,90.8ZM77.33,62.23l7,5.64-9.49,1.88ZM70.66,82.39l6.53,3.48H69.51C69.9,84.71,70.28,83.55,70.66,82.39Z"/><path class="cls-1" d="M100.3,82.16,95.62,92.9c-1.07,2.46,9.39,5,10.89,1.53q1.9-4.35,3.8-8.71h4.55L117,93.55c.84,3.09,11.65,3.78,10.68.23q-1.11-4.09-2.24-8.21c1.34-.23,2.63-.8,2.24-2.19a1.34,1.34,0,0,0-.07-.18,10.63,10.63,0,0,0,2.94.7q-1.28,4.5-2.56,9c-.82,2.91,9.92,5,10.9,1.53.19-.69.39-1.37.58-2.06,1,2.39,1.95,4.79,2.92,7.18,1.26,3.08,12,3.4,10.68.23L146,82.34l10.16-1.26c1.22-.16,4.39-1.25,2.41-2.93l-17.66-15a9.84,9.84,0,0,0-7.34-1.89c-1.25.16-4.37,1.26-2.4,2.93l4.23,3.59a1.66,1.66,0,0,0-.48.79q-1.44,5-2.86,10.07l-3.64.45c-1.67.21-3.48.94-2.61,2.59a10.65,10.65,0,0,0-1.54-.49q-2.37-8.7-4.75-17.41c-.83-3-9.53-3.74-10.78-.88q-4.2,9.62-8.39,19.21S100.31,82.14,100.3,82.16Zm44-6.8,1.81,1.53-2.33.29C143.94,76.57,144.12,76,144.29,75.36ZM112.46,80.8c.22-.5.43-1,.65-1.49.14.49.27,1,.41,1.49Z"/><path class="cls-1" d="M160.74,107.33a3.12,3.12,0,0,0,.65,1.14c2,2.38,6.53,2.88,9.36,3.23a97.48,97.48,0,0,0,19,.21c5.59-.41,14.17-2.37,7.55-8.51-4.41-4.09-14.95-9.13-14.4-16.33.44-5.89,10.26-2.74,13.65-1.75,1.44.42,6.05,1.14,6.93-.7.95-2-1.95-3-3.4-3.41-6.76-2-15.18-3.62-22.11-1.66-10.29,2.9-4.64,12.85.79,17.76,1.67,1.51,3.46,2.87,5.23,4.26,1.22.94,3.77,2.3,4.46,3.72.26.53.8.71.62,1.17-.47,1.15-7.58.77-8.44.78-2.09,0-4.18,0-6.26,0-.43,0-1.08-.13-1.75-.23a1.71,1.71,0,0,1,.23-.13c2.28-1.09-.31-3-1.5-3.48a10.07,10.07,0,0,0-7.13-.37l9.54-23.56c1-2.55-9.49-5-10.89-1.53l-10.67,26.33C151.44,106.16,157.24,108,160.74,107.33Zm10.66.56,0,0S171.47,107.9,171.4,107.89Zm-1.13-1,0,.06C168.72,107.39,170.2,106.41,170.27,106.91Z"/><path class="cls-1" d="M214.83,120.43l11.64-27.76,6.83,2.63c1.91.74,5.77,1.67,7.57.21s.21-2.82-1.5-3.48L226.25,87A10.72,10.72,0,0,0,225,86.5l-12.62-4.87c-1.9-.74-5.77-1.67-7.57-.21s-.21,2.82,1.51,3.48l10.19,3.93q-6.3,15-12.61,30.07C202.88,121.41,213.38,123.88,214.83,120.43Z"/><path class="cls-1" d="M238,106.46h0l-7.13,16.44c-1.07,2.46,9.4,5,10.89,1.53l6.09-14,6.45,1.14,6.84,20c1.06,3.1,11.83,3.59,10.68.23l-7.3-21.34a1.4,1.4,0,0,0-.22-.63Q260.66,99.13,257,88.45c-1-3-9.5-3.85-10.79-.88q-3.94,9.11-7.9,18.2A1.49,1.49,0,0,0,238,106.46ZM249.8,106c.48-1.12,1-2.23,1.45-3.35l1.32,3.84Z"/><path class="cls-1" d="M76.61,208.36l11,5.75c2.22,1.17,5.25,1.89,7.71,1.09,1.86-.61,2.53-2.23.46-3.31l-16.16-8.48c2.24-2.54,4.42-5.13,6.57-7.72,4.22-5.05,8-11.41-.63-13.91-6.74-1.95-14.27.15-20.75,2.12a170.47,170.47,0,0,0-16.25,5.92c-2.36,1,.4,3,1.51,3.48a10,10,0,0,0,7.57.21l1.73-.72,5.12,11.9a2.37,2.37,0,0,0-.27.28c-2.25,3.13-2.19,5.09,2.66,6.07l.36.05q2.69,6.24,5.36,12.46c1.32,3.07,12,3.33,10.67.23ZM82.18,186c.29,0,.3.1,0,0ZM80.07,185s0,.09.09.17C80,185.06,80,185,80.07,185Zm-.21,1.41a10.62,10.62,0,0,1-.37,1.54,20.42,20.42,0,0,1-2.63,3.82c-1.57,2-3.21,3.92-4.89,5.84l-3.51-8.18A92.48,92.48,0,0,1,79.86,186.37Z"/><path class="cls-1" d="M117.77,181.86c2.3-.5,2-2.14.47-3.31-1.93-1.51-5.43-1.58-7.7-1.08-6,1.33-15.14,4.8-16.38,11.71-.9,5,3.22,10,6.62,13.11a31.44,31.44,0,0,0,16.54,7.87c10.46,1.52,18.87-3.93,19.6-13.4a20.56,20.56,0,0,0,7.85,2.43c8.87,1.05,22.6-1.2,28.34-9.23,2.54,2,9.61,2.48,10-.19q1.51-10.35,3-20.7l7.33,8.45c1.6,1.84,9.39,3.5,10.32.25q1.53-5.34,3.05-10.68,3.82,7.22,7.64,14.42c1.59,3,12.15,3,10.68.24l-14.81-28c-1.28-2.41-9.8-4.33-10.79-.88l-4.16,14.57L187,157.81c-1.42-1.63-9.83-3.6-10.32-.24q-1.31,8.93-2.6,17.86a21,21,0,0,0-5.84-7.49,19.31,19.31,0,0,0-13.05-4c-6.78.24-13.54.3-20.32-.06-1.57-.09-4.55.22-4.21,2.34s5.12,2.51,6.47,2.58c5.16.28,10.34.38,15.51.28,1.44,0,4,.3,5.53-.09A26.5,26.5,0,0,1,161,171.3c5.29,6.2,5.1,15.16-2.23,19.58-3.06,1.85-10.85,5.17-14.36,3.45-2.42-1.19-2.75-4.82-2.68-7.16a36,36,0,0,1,3.8-13.56c1.71-3.36-8.9-5.52-10.33-2.72a42.82,42.82,0,0,0-3.66,9.69c-5.28-6.86-13.72-11.53-22.28-10.66-1.79.19-3.7,1.06-2.4,2.93,1.16,1.67,4.67,2,6.74,1.93a2.28,2.28,0,0,1,.6.21,15.6,15.6,0,0,1,2.28,1.39,24.41,24.41,0,0,1,4.52,4.39,22,22,0,0,1,5.13,12.88c.18,7.82-5,14.63-12.59,9.87-5.18-3.25-11.92-10.82-6.33-16.54C109.88,184.21,114.05,182.68,117.77,181.86Zm-4.23-7.08c-.29,0-.24-.05,0,0Z"/><path class="cls-1" d="M256.72,173q1.21-4,2.41-8c.68,2.37,1.36,4.73,2,7.1.89,3.09,11.69,3.74,10.68.23q-3.7-12.95-7.42-25.91c-.8-2.81-9.85-4-10.78-.88L248,164.15l-16.75-15.67c-1.54-1.44-11-3.69-10.21.4q3.38,16.32,6.74,32.63c.63,3.05,11.45,4,10.68.24q-2.1-10.16-4.19-20.3l12.1,11.32C248.17,174.42,255.7,176.42,256.72,173Z"/><path class="cls-1" d="M285.66,140.48c-1.38-1.54-10-3.64-10.31-.25L273.52,158a.81.81,0,0,0,0,.38l-1.26,12.2c-.35,3.37,10.56,4.79,10.89,1.53q.6-5.78,1.19-11.54l6.38-2.6,8,8.88c2.05,2.28,12.67,2.23,9.74-1Zm-.56,12.37c0-.33.07-.66.1-1l.63.7Z"/><path class="cls-1" d="M315.11,129.26l-10.58,1.88a7.51,7.51,0,0,0-2,.36l-9.88,1.76c-7,1.25,1.35,5.45,4.93,4.82l4.25-.76q2.34,10.81,4.66,21.63c.66,3.05,11.48,3.92,10.68.23L312,135.5l8-1.42C327.06,132.83,318.69,128.62,315.11,129.26Z"/><path class="cls-1" d="M359.67,159.18c-.31-2-5.13-2.58-6.47-2.58H338v-8.77h12.32c1.37,0,4.8-.19,4.2-2.35-.54-2-4.93-2.58-6.47-2.58H338v-8.77h12.32c1.56,0,4.55-.17,4.2-2.35-.31-2-5.13-2.58-6.47-2.58H331.44c-.92,0-4.32.09-4.32,1.7v27.4c0,2.53,4.91,3.22,6.58,3.22h21.76C357,161.52,360,161.36,359.67,159.18Z"/><path class="cls-1" d="M160.49,245.57l2.4,34.5a1.91,1.91,0,0,0,.29.88l-21.43-9.86c7.12-2.2,13.34-5.94,11.19-12.72-3.32-10.49-21.19-7.56-28.89-4.9-.67.23-1.69.58-1.83,1.43l-.63,3.87c-.08-.07-.15-.15-.24-.22-1.84-1.43-5.53-1.7-7.7-1.08l-25.6,7.33c-.53.15-1.83.65-1.83,1.43V304.9c0,3.56,10.89,4.59,10.89,1.53v-21.9l17-3.12c1.73-.32,3.77-1,2.41-2.93-1.21-1.73-5.49-2.23-7.34-1.89l-12.12,2.22V268.67l23.77-6.81a1.43,1.43,0,0,0,.22-.08q-2.11,12.9-4.21,25.79c-.53,3.23,10.34,4.88,10.89,1.53q1.26-7.75,2.53-15.51l2.7-.46L157.3,284.3c1.82.84,5.84,1.62,7.57.21.87-.71.94-1.36.6-1.93,3.27,1.26,8.45,1,8.31-1l-2.39-34.5C171.13,243.46,160.29,242.69,160.49,245.57Zm-18.15,15.48c-1,3.85-7.05,5.07-10.39,6l-.6.16,1.62-9.93C137.6,255.76,144.05,254.2,142.34,261.05Z"/><path class="cls-1" d="M213.46,268.89c-1.86-1.46-5.49-1.68-7.7-1.09l-15.26,4.08c-.34-2.85-.67-5.7-1-8.56l14.64-1.24c1.8-.16,3.7-1.08,2.41-2.93s-5.4-2.06-7.34-1.89l-10.32.88q-.45-3.87-.91-7.72a22.81,22.81,0,0,0-.43-2.66,4.39,4.39,0,0,1,.53-.26c1-.39,2.05-1,3-1.46l12.16-5.86c2.28-1.1-.3-3-1.5-3.48a9.75,9.75,0,0,0-7.57-.21l-16.6,8a1.57,1.57,0,0,0-.91,1.08q.81,6.81,1.61,13.64c-1.2.42-2,1.27-1,2.64a3.47,3.47,0,0,0,1.47,1.13q.73,6.28,1.48,12.59c.39,3.28,6.68,3.6,9.07,3L213,272.2C215.23,271.6,215,270.11,213.46,268.89Z"/><path class="cls-1" d="M238.61,239.1c-.47-3.68-11.24-4.24-10.9-1.53l1.59,12.59-8.93-9.68c-1.56-1.69-10.87-3.59-10.21.4q2.16,13,4.31,26c.49,3,11.3,4,10.68.24q-1-6-2-12l8.31,9c1.2,1.3,10.73,3.5,10.32.25Q240.19,251.72,238.61,239.1Z"/><path class="cls-1" d="M238.3,234.15c-1.27,1.42,1.81,3,5,3.54q2.49,11.48,5,22.95c.58,2.7,7.08,2.93,9,2.32,7.78-2.55,22.82-9.7,17.4-20.15C269,231.91,247.92,223.41,238.3,234.15Zm26.4,13.15c-.73,3.32-3.66,5.93-7,7.88l-4.24-19.56a2,2,0,0,0-.8-1.13,4.76,4.76,0,0,1,1.06-.1C258.62,234.65,265.83,242.15,264.7,247.3Z"/></svg>