<svg id="overlay_1" data-name="overlay 1" xmlns="http://www.w3.org/2000/svg" viewBox="0 0 432 540"><defs><style>.cls-1{fill:#a53c3c;}</style></defs><title>overlay1</title><path class="cls-1" d="M289.83,157.26a15.85,15.85,0,0,0-22.4,0,17,17,0,0,0-1.61,1.91h0v6.92l-6.27,6.27L270.19,183l-8.35,8.34,4.56,4.56v6.48l20.33-20.33a15.77,15.77,0,0,0,3.1-24.79Z"/><path class="cls-1" d="M263.35,195.9l-4.56-4.56,8.34-8.34L256.5,172.36l6.27-6.27v-6.92h0v-.29a15.83,15.83,0,1,0-20.9,22.88l17,17,3.92,3.93.58-.58Z"/></svg>