<svg id="overlay_2" data-name="overlay 2" xmlns="http://www.w3.org/2000/svg" viewBox="0 0 432 540"><defs><style>.cls-1{fill:#a53c3c;}</style></defs><title>overlay2</title><path class="cls-1" d="M115.66,235,60.5,280.31c-1.78,1.46,2.62,3.2,3.4,3.41,2.16.6,5.09.82,6.93-.69L126,237.69c1.79-1.46-2.62-3.2-3.4-3.41-2.16-.6-5.09-.82-6.93.69Z"/><path class="cls-1" d="M103.46,234.8h22l-6.57-3.23-3.51,22.66c-.5,3.26,10.38,4.88,10.89,1.54l3.51-22.67c.38-2.47-5.26-3.23-6.58-3.23h-22c-1.56,0-4.56.17-4.21,2.35.32,2,5.14,2.58,6.47,2.58Z"/><path class="cls-1" d="M133,121.58,75.08,79.82c-2.47-1.78-12.95-1.21-8.17,2.23l57.92,41.76c2.47,1.78,12.94,1.22,8.16-2.23Z"/><path class="cls-1" d="M122.72,103.68,128.33,125l2.88-2.3-22.81,2.4c-1.79.19-3.71,1-2.41,2.93s5.41,2.09,7.34,1.89l22.81-2.4c1.27-.13,3.31-.64,2.87-2.29l-5.62-21.27c-.81-3.08-11.62-3.8-10.67-.23Z"/><path class="cls-1" d="M294.88,202.92l74.66-34.35,10.74-4.95c2.31-1.06-.34-3-1.5-3.48a9.89,9.89,0,0,0-7.57-.21l-74.66,34.36-10.74,4.94c-2.31,1.07.33,3,1.5,3.48a9.84,9.84,0,0,0,7.57.21Z"/><path class="cls-1" d="M307.25,214.89,288.08,204.1l1.08,2.47,21.72-31.45c2-2.89-8.45-5.45-10.33-2.72l-21.72,31.45c-.71,1,.18,2,1.08,2.48l19.17,10.78c2.06,1.16,5.42,2,7.71,1.09,1.8-.73,2.57-2.13.46-3.31Z"/></svg>