<svg id="overlay_7" data-name="overlay 7" xmlns="http://www.w3.org/2000/svg" viewBox="0 0 432 540"><defs><style>.cls-1{fill:none;stroke:#a53c3c;stroke-miterlimit:10;stroke-width:2px;}</style></defs><title>overlay7</title><path class="cls-1" d="M108.63,212.78s-5,10.66,18-8c0,0,.47,64-18,55.33s-13.11-19.33-4.44-20.33,41.91,17,48.29,9-14.31-14-17-3.34,10.68,24.67,27.35,10,20-30,16-7.33-3.54,11.33-3.54,11.33,24.53-47.95,17.54-6c-2.67,16,6.54,2.67,8.94-3.33s11.06-20.67,7.72-4.67l-3.33,16s31.41-42.8,21.17-8c-3,10.11,7.25,1.46,11.44-13.66,0,0-6.61,25,8.06,15s34.66-68.67,18.66-40-26,65.33-18,66,3.12-32,7.9-30,15.25-4,16-8-6.86,15.33,5.62,10,22.3-12.67,11.72-13-7.5,32.8,12.28,12.33c11.92-12.33,4.13-11.52,7.81-12.33l12.16-3s-3.5,24,5.17,16.66"/></svg>