<svg id="overlay_11" data-name="overlay 11" xmlns="http://www.w3.org/2000/svg" viewBox="0 0 432 540"><defs><style>.cls-1{fill:#a53c3c;}</style></defs><title>overlay11</title><path class="cls-1" d="M208.63,250.23l-13.55-3.51-3.28-16.27c-.32-1.55-3.27-2.54-6-2.66-2-.18-3.88.14-4.51,1.18l-7.37,12.28-12.06-3.13c-1.49-.38-9.43-.69-6.64,2.58l11.17,13.08-11.46,19.09c-2.21,3.67,8,4,9.7,3.2l14.85-7,12.88,15.09c1.5,1.75,11,3.5,10.21-.41l-4.71-23.3,13.54-6.35C214.41,252.71,209.68,250.5,208.63,250.23Zm-23.69-1.11c.58,2.89,1.16,5.77,1.75,8.66l-4.46,2.09c-1.48-1.72-2.95-3.45-4.42-5.17l3.85-6.43Zm-15.27-4,1.64.42-.53.88Zm2.07,19.62,1.68-2.79c.4.48.81,1,1.22,1.43Zm16.88,2.57c-.52-.6-1-1.21-1.55-1.82l1.08-.5C188.31,265.81,188.47,266.59,188.62,267.36ZM196.16,252l1.8.47-1.56.73Z"/></svg>