<svg id="overlay_2" data-name="overlay 2" xmlns="http://www.w3.org/2000/svg" viewBox="0 0 432 540"><defs><style>.cls-1{fill:#a53c3c;}</style></defs><title>overlay2</title><path class="cls-1" d="M123.2,229.87h-22c-1.56,0-4.56.17-4.21,2.35.32,2,5.14,2.58,6.47,2.58h12.47c-.09.06-.18.1-.27.17L60.5,280.31c-1.78,1.46,2.62,3.2,3.4,3.41,2.16.6,5.09.82,6.93-.69l45.94-37.75c-.47,3-.93,6-1.39,8.95-.5,3.26,10.38,4.88,10.89,1.54l3.51-22.67C130.16,230.63,124.52,229.87,123.2,229.87Z"/><path class="cls-1" d="M133.39,103.91c-.81-3.08-11.62-3.8-10.67-.23l3.42,13L75.08,79.82c-2.47-1.78-12.95-1.21-8.17,2.23l57.33,41.34-15.84,1.66c-1.79.19-3.71,1-2.41,2.93s5.41,2.09,7.34,1.89l22.81-2.4c1.27-.13,3.31-.64,2.87-2.29Q136.2,114.55,133.39,103.91Z"/><path class="cls-1" d="M378.78,160.14a9.89,9.89,0,0,0-7.57-.21l-73.06,33.63q6.36-9.23,12.73-18.44c2-2.89-8.45-5.45-10.33-2.72l-21.72,31.45c-.71,1,.18,2,1.08,2.48l19.17,10.78c2.06,1.16,5.42,2,7.71,1.09,1.8-.73,2.57-2.13.46-3.31l-17.16-9.66,1.14-1.66a8.16,8.16,0,0,0,3.65-.65l74.66-34.35,10.74-4.95C382.59,162.56,379.94,160.66,378.78,160.14Z"/></svg>