<?xml version="1.0" encoding="utf-8"?>
<!-- Generator: Adobe Illustrator 23.0.1, SVG Export Plug-In . SVG Version: 6.00 Build 0)  -->
<svg version="1.1" id="Layer_1" xmlns="http://www.w3.org/2000/svg" xmlns:xlink="http://www.w3.org/1999/xlink" x="0px" y="0px"
	 viewBox="0 0 432 540" style="enable-background:new 0 0 432 540;" xml:space="preserve">
<style type="text/css">
	.st0{fill:#ADADAD;}
	.st1{fill:#951A1D;}
	.st2{fill:#C72026;}
	.st3{fill:#ED2224;}
</style>
<g>
	<path class="st0" d="M373.1,496.5l-8.6,8.6c-1.1,1.1-2.9,1.1-4,0l0,0c-1.1-1.1-1.1-2.9,0-4l8.6-8.6c1.1-1.1,2.9-1.1,4,0l0,0
		C374.2,493.6,374.2,495.4,373.1,496.5z"/>
	<ellipse class="st1" cx="385.5" cy="481.5" rx="22.1" ry="22.7"/>
	<path class="st2" d="M404.3,476.1l-6.9,6.9c-3.2,3.2-8.4,3.2-11.5,0h0c-3.2-3.2-3.2-8.4,0-11.5l6.9-6.9c3.2-3.2,8.4-3.2,11.5,0l0,0
		C407.5,467.7,407.5,472.9,404.3,476.1z"/>
	<circle class="st3" cx="407.4" cy="462.1" r="16.1"/>
</g>
</svg>
