<svg id="Layer_26" data-name="Layer 26" xmlns="http://www.w3.org/2000/svg" viewBox="0 0 432 540"><defs><style>.cls-1{fill:#adadad;}.cls-2{fill:#ba9624;}.cls-3{fill:#c6a222;}.cls-4{fill:#eac324;}</style></defs><title>pin11</title><path class="cls-1" d="M205.47,40.25,199,46.71a2.13,2.13,0,0,1-3,0h0a2.13,2.13,0,0,1,0-3l6.46-6.46a2.13,2.13,0,0,1,3,0h0A2.13,2.13,0,0,1,205.47,40.25Z"/><ellipse class="cls-2" cx="214.78" cy="28.98" rx="16.6" ry="17.05"/><path class="cls-3" d="M228.9,24.93l-5.18,5.18a6.07,6.07,0,0,1-8.64,0h0a6.07,6.07,0,0,1,0-8.64l5.18-5.18a6.07,6.07,0,0,1,8.64,0h0A6.07,6.07,0,0,1,228.9,24.93Z"/><circle class="cls-4" cx="231.22" cy="14.42" r="12.09"/></svg>