<?xml version="1.0" encoding="utf-8"?>
<!-- Generator: Adobe Illustrator 23.0.1, SVG Export Plug-In . SVG Version: 6.00 Build 0)  -->
<svg version="1.1" xmlns="http://www.w3.org/2000/svg" xmlns:xlink="http://www.w3.org/1999/xlink" x="0px" y="0px"
	 viewBox="0 0 432 540" style="enable-background:new 0 0 432 540;" xml:space="preserve">
<style type="text/css">
	.st0{display:none;}
	.st1{display:inline;fill:#FFD8E0;}
	.st2{display:inline;fill:#F4F4F4;}
	.st3{display:inline;}
	.st4{fill:#ACACAC;}
	.st5{fill:#950001;}
	.st6{fill:#C80001;}
	.st7{fill:#FF0001;}
</style>
<g id="Layer_1" class="st0">
	<rect x="32.5" y="51.5" class="st1" width="366" height="336"/>
	<rect class="st2" width="432" height="540"/>
</g>
<g id="Image_1" class="st0">
	
		<image style="display:inline;overflow:visible;" width="750" height="750" xlink:href="images.jpg"  transform="matrix(0.48 0 0 0.48 36 36)">
	</image>
	<g class="st3">
		<g>
			<path d="M29.7,480.7c1.9-16.5,3.8-32.9,5.7-49.4c-3.6-0.3-7.2-0.6-10.8-0.9c5.1,8.2,10.2,16.5,15.3,24.7
				c1.5,2.4,9.5,4.3,10.8,0.9c2.5-6.8,5-13.6,7.4-20.4c-3.6-0.3-7.2-0.6-10.8-0.9c4.2,11.4,8.5,22.8,12.7,34.2
				c1.1,3.1,11.9,3.5,10.7,0.2c-4.2-11.4-8.5-22.8-12.7-34.2c-1-2.8-9.6-4-10.8-0.9c-2.5,6.8-5,13.6-7.4,20.4
				c3.6,0.3,7.2,0.6,10.8,0.9c-5.1-8.2-10.2-16.5-15.3-24.7c-1.2-2-10.4-4.6-10.8-0.9c-1.9,16.5-3.8,32.9-5.7,49.4
				C18.4,482.5,29.3,484,29.7,480.7L29.7,480.7z"/>
		</g>
	</g>
	<g class="st3">
		<g>
			<path d="M80.2,432.2c-5.2,0.4-11.1,2.7-14,7.2c-6.1,9.4,1,24.8,9.1,30.6c8.7,6.2,21.5,6,30.1-0.2c8.5-6.2,10.8-16.2,4.4-25
				c-5.7-7.8-15.8-12.7-25-14.9c-1.5-0.3-6-1.2-6.9,0.7c-0.9,1.9,1.9,3.1,3.4,3.4c7.3,1.7,15.4,6,19.3,12.7c5.2,9-0.3,19.3-9.8,22.3
				c-10.7,3.4-17.2-15.2-15.7-23.3c0.7-3.4,2.8-6.2,6-7.6c2-0.9,2.8-1,4-1.1c1.8-0.1,3.7-1.1,2.4-2.9
				C86.2,432.2,82.1,432,80.2,432.2L80.2,432.2z"/>
		</g>
	</g>
	<g class="st3">
		<g>
			<path d="M107.6,425.2c1.9,14.8,3.8,29.6,5.7,44.3c0.4,3.3,6.6,3.5,9.1,3c10.4-2.4,20.7-4.7,31.1-7.1c2.3-0.5,2-2.1,0.5-3.3
				c-1.9-1.5-5.4-1.6-7.7-1.1c-10.4,2.4-20.7,4.7-31.1,7.1c3,1,6,2,9.1,3c-1.9-14.8-3.8-29.6-5.7-44.3
				C118,423,107.2,422.5,107.6,425.2L107.6,425.2z"/>
		</g>
	</g>
	<g class="st3">
		<g>
			<path d="M137.4,435.4c2.3,13.3,4.7,26.5,7,39.8c0.5,2.8,7.1,2.7,9,2.3c9.6-2,19.2-4.1,28.9-6.1c2.3-0.5,2-2.1,0.5-3.3
				c-1.9-1.5-5.4-1.6-7.7-1.1c-9.6,2-19.2,4.1-28.9,6.1c3,0.8,6,1.5,9,2.3c-2.3-13.3-4.7-26.5-7-39.8
				C147.6,432.6,136.8,431.6,137.4,435.4L137.4,435.4z"/>
		</g>
	</g>
	<g class="st3">
		<g>
			<path d="M164.1,436.3c6.1,6.7,12.2,13.4,18.4,20.1c1.6,1.8,5.1,2.2,7.3,1.9c1.5-0.2,4.1-1.1,2.4-2.9
				c-6.1-6.7-12.2-13.4-18.4-20.1c-1.6-1.8-5.1-2.2-7.3-1.9C165,433.5,162.5,434.4,164.1,436.3L164.1,436.3z"/>
		</g>
	</g>
	<g class="st3">
		<g>
			<path d="M185.4,480.7c5.8-15.2,11.7-30.3,17.5-45.5c1-2.6-9.6-5-10.9-1.5c-5.8,15.2-11.7,30.3-17.5,45.5
				C173.5,481.8,184.1,484.1,185.4,480.7L185.4,480.7z"/>
		</g>
	</g>
	<g class="st3">
		<g>
			<path d="M214.3,463.1c10-1.4,20-2.9,30-4.3c1.8-0.3,3.7-1,2.4-2.9c-1.2-1.8-5.4-2.2-7.3-1.9c-10,1.4-20,2.9-30,4.3
				c-1.8,0.3-3.7,1-2.4,2.9C208.2,463,212.5,463.3,214.3,463.1L214.3,463.1z"/>
		</g>
	</g>
	<g class="st3">
		<g>
			<path d="M235.6,472c-2-9.8-4.1-19.6-6.1-29.4c-0.6-3-11.5-3.9-10.7-0.2c2,9.8,4.1,19.6,6.1,29.4
				C225.6,474.8,236.4,475.7,235.6,472L235.6,472z"/>
		</g>
	</g>
	<g class="st3">
		<g>
			<path d="M261.6,476.5c2.7-13.9,5.4-27.9,8.1-41.8c-3.6-0.3-7.2-0.6-10.8-0.9c6.6,14.9,13.3,29.8,19.9,44.7
				c1.4,3.1,12,3.3,10.7,0.2c-6.6-14.9-13.3-29.8-19.9-44.7c-1.1-2.4-10.1-4.3-10.8-0.9c-2.7,13.9-5.4,27.9-8.1,41.8
				C250.1,478.1,260.9,479.8,261.6,476.5L261.6,476.5z"/>
		</g>
	</g>
	<g class="st3">
		<g>
			<path d="M281.6,455.6c-8.4,1.1-16.8,2.1-25.2,3.2c-1.8,0.2-3.7,1-2.4,2.9c1.3,1.8,5.4,2.1,7.3,1.9c8.4-1.1,16.8-2.1,25.2-3.2
				c1.8-0.2,3.7-1,2.4-2.9C287.7,455.7,283.5,455.3,281.6,455.6L281.6,455.6z"/>
		</g>
	</g>
	<g class="st3">
		<g>
			<path d="M285.3,433.7c3.4,16,6.8,31.9,10.3,47.9c0.4,2,5.1,2.5,6.5,2.6c11.4,0.2,22.1-6.3,23.4-18.3c1.1-9.6-1.8-21-9.3-27.5
				c-6.2-5.4-14.8-7.5-22.9-7.7c-5.2-0.1-10.7,0.4-15.7,2c-2.2,0.7-2.1,2-0.5,3.3c1.8,1.4,5.6,1.7,7.7,1.1
				c11.7-3.6,23.8-0.4,28,12.7c2.7,8.3,3.4,20.4-4.3,26.4c-2,1.5-4.4,2.5-6.8,3c-0.4,0.1-1.2,0-2.1,0.3c-0.7,0.2,1.3,0,0,0
				c2.2,0.9,4.3,1.7,6.5,2.6c-3.4-16-6.8-31.9-10.3-47.9C295.3,430.9,284.5,430.1,285.3,433.7L285.3,433.7z"/>
		</g>
	</g>
	<g class="st3">
		<g>
			<path d="M337.5,479.3c3.2-15.1,6.3-30.3,9.5-45.4c-3.6-0.3-7.2-0.6-10.8-0.9c4.7,16.2,9.5,32.4,14.2,48.6
				c0.9,3.1,11.7,3.7,10.7,0.2c-4.7-16.2-9.5-32.4-14.2-48.6c-0.8-2.7-10.1-4.1-10.8-0.9c-3.2,15.1-6.3,30.3-9.5,45.4
				C325.9,480.9,336.7,482.7,337.5,479.3L337.5,479.3z"/>
		</g>
	</g>
	<g class="st3">
		<g>
			<path d="M330.8,463.4c7.4,0.6,14.9,1.2,22.3,1.8c1.6,0.1,4.5-0.3,4.2-2.3c-0.3-2.1-5.1-2.5-6.5-2.6c-7.4-0.6-14.9-1.2-22.3-1.8
				c-1.6-0.1-4.5,0.3-4.2,2.3C324.6,462.9,329.4,463.3,330.8,463.4L330.8,463.4z"/>
		</g>
	</g>
	<g class="st3">
		<g>
			<path d="M371.6,476.5c1.6-14.2,3.2-28.4,4.7-42.6c-3.6-0.3-7.2-0.6-10.8-0.9c5.5,8.8,11.1,17.6,16.6,26.5
				c1.6,2.6,9.2,4.2,10.8,0.9c4.1-8.8,8.2-17.6,12.3-26.5c-3.6-0.3-7.2-0.6-10.8-0.9c4.3,16.2,8.5,32.4,12.8,48.6
				c0.8,3.1,11.6,3.8,10.7,0.2c-4.3-16.2-8.5-32.4-12.8-48.6c-0.8-3.1-9.5-3.7-10.8-0.9c-4.1,8.8-8.2,17.6-12.3,26.5
				c3.6,0.3,7.2,0.6,10.8,0.9c-5.5-8.8-11.1-17.6-16.6-26.5c-1.2-2-10.4-4.6-10.8-0.9c-1.6,14.2-3.2,28.4-4.7,42.6
				C360.3,478.3,371.2,479.7,371.6,476.5L371.6,476.5z"/>
		</g>
	</g>
</g>
<g id="Image_2" class="st0">
	<g class="st3">
		<g>
			<path d="M30.2,416.5c3.5,13.6,6.9,27.1,10.4,40.7c0.7,2.6,9.2,3.9,10.5,1.5c4.7-9,9.5-17.9,14.2-26.9c-3.5-0.5-7-1-10.5-1.5
				c3.3,9,6.7,17.9,10,26.9c1,2.8,9.6,4,10.8,0.9c5.1-13.6,10.2-27.1,15.4-40.7c1-2.6-9.6-5-10.9-1.5c-5.1,13.6-10.2,27.1-15.4,40.7
				c3.6,0.3,7.2,0.6,10.8,0.9c-3.3-9-6.7-17.9-10-26.9c-0.9-2.5-9.1-4-10.5-1.5c-4.7,9-9.5,17.9-14.2,26.9c3.5,0.5,7,1,10.5,1.5
				c-3.5-13.6-6.9-27.1-10.4-40.7C40.1,413.7,29.2,412.9,30.2,416.5L30.2,416.5z"/>
		</g>
	</g>
	<g class="st3">
		<g>
			<path d="M85.3,419.7c-1.8,14.8-3.6,29.7-5.4,44.5c-0.4,3.3,10.5,4.8,10.9,1.5c1.8-14.8,3.6-29.7,5.4-44.5
				C96.6,417.9,85.7,416.4,85.3,419.7L85.3,419.7z"/>
		</g>
	</g>
	<g class="st3">
		<g>
			<path d="M106,423.6c-1,14.2-2,28.4-3.1,42.6c-0.2,3.4,10.7,4.7,10.9,1.5c1-14.2,2-28.4,3.1-42.6
				C117.2,421.7,106.3,420.3,106,423.6L106,423.6z"/>
		</g>
	</g>
	<g class="st3">
		<g>
			<path d="M85.1,445.1c8.7,1,17.4,1.9,26.1,2.9c1.4,0.2,5.5,0.5,5.8-1.6c0.3-2-3.9-3-5.1-3.1c-8.7-1-17.4-1.9-26.1-2.9
				c-1.4-0.2-5.5-0.5-5.8,1.6C79.7,444,83.8,445,85.1,445.1L85.1,445.1z"/>
		</g>
	</g>
	<g class="st3">
		<g>
			<path d="M134.9,428.4c-6.6,0.1-14.6,2.2-17.9,8.5c-5.9,11.1,3.2,27.2,14,31.5c8.7,3.5,22.5,2.6,28-6.2c4-6.4,4.3-15.9,2-22.9
				c-4.5-13.5-20.4-15.9-32.7-13.9c-1.8,0.3-3.7,1-2.4,2.9c1.2,1.8,5.5,2.2,7.3,1.9c8-1.2,14.1,0.4,17,8.5c2,5.7,1.6,12.4-0.3,18
				c-1.6,4.6-6.7,9.4-12,8.6c-8.7-1.3-13.2-17.3-10.9-24.4c1-3.2,3.5-5.5,6.5-6.7c1.2-0.5,2.4-0.6,3.2-0.8c1.1-0.2,1.8-0.1,0.6-0.1
				c1.6,0,4.6-0.2,4.2-2.3C141.1,429,136.3,428.4,134.9,428.4L134.9,428.4z"/>
		</g>
	</g>
	
		<image style="display:inline;overflow:visible;" width="750" height="750" xlink:href="images2.jpg"  transform="matrix(0.48 0 0 0.48 35.5 36)">
	</image>
	<g class="st3">
		<g>
			<path d="M181.9,424c1.7,12.7,3.5,25.5,5.2,38.2c0.5,3.7,11.3,4.2,10.9,1.5c-1.7-12.7-3.5-25.5-5.2-38.2
				C192.3,421.9,181.5,421.3,181.9,424L181.9,424z"/>
		</g>
	</g>
	<g class="st3">
		<g>
			<path d="M222.2,432.6c0.3-10.4-29.4-10.1-26.8-0.6c1,3.5,5.1,5.9,7.9,7.7c5.9,3.8,11.9,7.6,17.3,12.1c1.5,1.3,5.6,4.9,1.4,5.8
				c-2.1,0.5-6.3-1.4-7.1-3.4c-1.3-3.1-12-3.4-10.7-0.2c2.8,6.6,14.4,8.6,20.5,8.6c3.1,0,7.6-0.5,9.4-3.5c1.8-3.1-0.8-5.6-3-7.5
				c-4.7-4.2-10-7.8-15.3-11.2c-2-1.3-10.3-5-9.8-8.3c0.2-1.6,2.2-1.9,3.4-1.9c1.3-0.1,1.8-0.4,1.8,1
				C211.2,434.6,222.1,435.7,222.2,432.6L222.2,432.6z"/>
		</g>
	</g>
	<g class="st3">
		<g>
			<path d="M274.5,424.4c-1.8,12.5-3.7,25.1-5.5,37.6c-0.5,3.3,10.4,4.9,10.9,1.5c1.8-12.5,3.7-25.1,5.5-37.6
				C285.9,422.6,275,421.1,274.5,424.4L274.5,424.4z"/>
		</g>
	</g>
	<g class="st3">
		<g>
			<path d="M258.2,427.5c13.4,1.7,26.7,3.3,40.1,5c1.4,0.2,5.5,0.5,5.8-1.6c0.3-2-3.9-3-5.1-3.1c-13.4-1.7-26.7-3.3-40.1-5
				c-1.4-0.2-5.5-0.5-5.8,1.6C252.8,426.4,257,427.3,258.2,427.5L258.2,427.5z"/>
		</g>
	</g>
	<g class="st3">
		<g>
			<path d="M295.3,424.4c-0.7,15.6-1.5,31.2-2.2,46.7c-0.2,3.5,10.7,4.7,10.9,1.5c0.7-15.6,1.5-31.2,2.2-46.7
				C306.4,422.4,295.5,421.2,295.3,424.4L295.3,424.4z"/>
		</g>
	</g>
	<g class="st3">
		<g>
			<path d="M294.2,453.9c12.3,0,24.5,0,36.8,0c1.6,0,4.6-0.2,4.2-2.3c-0.3-2-5.1-2.6-6.5-2.6c-12.3,0-24.5,0-36.8,0
				c-1.6,0-4.6,0.2-4.2,2.3C288.1,453.3,292.9,453.9,294.2,453.9L294.2,453.9z"/>
		</g>
	</g>
	<g class="st3">
		<g>
			<path d="M324.4,426.7c-1.1,14.8-2.2,29.6-3.3,44.4c-0.3,3.4,10.7,4.7,10.9,1.5c1.1-14.8,2.2-29.6,3.3-44.4
				C335.6,424.8,324.7,423.5,324.4,426.7L324.4,426.7z"/>
		</g>
	</g>
	<g class="st3">
		<g>
			<path d="M339.8,429.4c-1.1,13.9-2.2,27.8-3.3,41.8c-0.3,3.4,10.6,4.8,10.9,1.5c1.1-13.9,2.2-27.8,3.3-41.8
				C350.9,427.5,340,426.1,339.8,429.4L339.8,429.4z"/>
		</g>
	</g>
	<g class="st3">
		<g>
			<path d="M375.1,427.9c-7,2.2-14.5,4.9-20.4,9.4c-8.4,6.5-0.3,12,6.6,14.8c4.5,1.9,21.1,5.2,12.4,12c-5.8,4.6-14,6.9-21.1,8.8
				c-2.2,0.6-2,2.1-0.5,3.3c1.9,1.4,5.5,1.7,7.7,1.1c7.1-1.9,14.7-4.4,21-8.3c2.8-1.7,6.8-4.3,6.6-8c-0.2-3.6-4.3-5.8-7.1-7.2
				c-3.5-1.7-21.8-5.7-17.8-11.6c2.3-3.4,7.9-5.4,11.5-7c2.7-1.2,5.5-2.2,8.3-3.1c2.2-0.7,2.1-2,0.5-3.3
				C381,427.6,377.2,427.3,375.1,427.9L375.1,427.9z"/>
		</g>
	</g>
	<g class="st3">
		<g>
			<path d="M396.6,477.6c1.6,0,4.6-0.2,4.2-2.3c-0.3-2-5.1-2.6-6.5-2.6c-1.6,0-4.6,0.2-4.2,2.3C390.5,477,395.3,477.6,396.6,477.6
				L396.6,477.6z"/>
		</g>
	</g>
	<g class="st3">
		<g>
			<path d="M400.8,462.2c-1.3-1.9-2.5-4.5-2.2-6.8c0.3-2.6,2-4.3,4.4-5.3c0.8-0.3,2.5-0.6,1.8-0.6c2.6-0.1,5,0.9,7.5-0.4
				c2.4-1.3,3.3-4.6,4.2-7c2.5-7,1.9-12.7-5.4-16.2c-9.7-4.7-20.4-1.1-28.7,4.8c-3.6,2.6,6.6,5.5,9.1,3.7c4-2.9,13.9-10.1,15.7-1.3
				c0.6,3-1.2,6.5-2.2,9.2c-0.2,0.6-1.6,2.5-1.5,3c0.1,0.8,2.6,0,2.6-0.2c0-0.2,0.5,0.2-0.4-0.1c-5-1.3-12.6,0.6-16,4.5
				c-3.1,3.7-2.1,8.9,0.5,12.6c1.4,2,4.2,2.5,6.5,2.6C397.4,464.6,402.2,464.1,400.8,462.2L400.8,462.2z"/>
		</g>
	</g>
</g>
<g id="Image_3" class="st0">
	
		<image style="display:inline;overflow:visible;" width="750" height="750" xlink:href="images3.jpg"  transform="matrix(0.48 0 0 0.48 35.5 36)">
	</image>
	<g class="st3">
		<g>
			<path d="M34.9,433.4c0.3-3.6,1.6-7.5,4.2-10c4.7-4.6,9.9-0.4,8.7,5.3c-1.9,9.6-11,18.5-17.9,25c-2.2,2,7.8,5.1,10.3,2.7
				c4.3-4,8.3-8.5,11.7-13.2c3.7-5,9.6-13.4,5.9-19.8c-4.4-7.4-19.1-9-26-5c-4.7,2.7-7.3,8.3-7.7,13.6
				C23.7,435.3,34.6,436.7,34.9,433.4L34.9,433.4z"/>
		</g>
	</g>
	<g class="st3">
		<g>
			<path d="M37.1,457.9c11.7-1,23.4-2,35.1-3c1.8-0.2,3.7-1.1,2.4-2.9c-1.3-1.9-5.4-2.1-7.3-1.9c-11.7,1-23.4,2-35.1,3
				c-1.8,0.2-3.7,1.1-2.4,2.9C31,457.9,35.2,458.1,37.1,457.9L37.1,457.9z"/>
		</g>
	</g>
	<g class="st3">
		<g>
			<path d="M59.3,412.6c3,11.8,6,23.7,9,35.5c0.8,3.1,11.6,3.8,10.7,0.2c-3-11.8-6-23.7-9-35.5C69.2,409.7,58.4,409,59.3,412.6
				L59.3,412.6z"/>
		</g>
	</g>
	<g class="st3">
		<g>
			<path d="M89.6,410.5c-4.3,1.4-9,3-12.7,5.7c-4.9,3.6-2.6,7.3,2.1,9.7c2.5,1.3,13.3,3.2,9.6,6.9c-3,3.1-8.9,4.4-12.9,5.6
				c-2.2,0.6-2,2.1-0.5,3.3c1.9,1.4,5.5,1.7,7.7,1.1c5-1.4,25.2-7.8,14.5-14.8c-2.3-1.5-12.9-3.8-12.6-6.7c0.4-3.1,9.4-5.5,11.9-6.3
				c2.2-0.7,2.1-2,0.5-3.3C95.5,410.2,91.7,409.8,89.6,410.5L89.6,410.5z"/>
		</g>
	</g>
	<g class="st3">
		<g>
			<path d="M105.4,419.1c8.2-1.5,16.3-3,24.5-4.5c2.3-0.4,1.9-2.2,0.5-3.3c-2-1.6-5.4-1.5-7.7-1.1c-8.2,1.5-16.3,3-24.5,4.5
				c-2.3,0.4-1.9,2.2-0.5,3.3C99.7,419.5,103.1,419.5,105.4,419.1L105.4,419.1z"/>
		</g>
	</g>
	<g class="st3">
		<g>
			<path d="M108.6,413.8c0.8,7.4,1.6,14.9,2.4,22.3c0.4,3.7,11.2,4.3,10.9,1.5c-0.8-7.4-1.6-14.9-2.4-22.3
				C119.1,411.7,108.3,411.1,108.6,413.8L108.6,413.8z"/>
		</g>
	</g>
	<g class="st3">
		<g>
			<path d="M199.9,413.1c1.9,0.5,9.9,1.7,8.2-2.2c-0.7-1.7-4.2-2.6-5.8-3.2c-7.4-2.7-15.8-4.4-23.7-3.4c-8.6,1.1-14.4,6.4-14.1,15.4
				c0.4,12.8,6.8,27,20.9,28c9.1,0.7,17.6-4.6,23.6-11.2c2.1-2.4-8-5.3-10.3-2.7c-2.9,3.2-6.5,6.2-10.5,7.9
				c-2.8,1.3-3.5,1.6-5.5-0.4c-3.7-3.6-5.4-9.5-6.5-14.4c-1.2-5.5-1.8-13.3,3.9-16.6c3.7-2.2,8.1-1.4,11-0.8c2.7,0.6,4.2,1,6.2,1.8
				c0.4,0.1,0.7,0.3,1.1,0.5c0.9,0.3,0,0,0,0c0.6-0.1-0.4,0-0.2-0.2c-0.4,0.7,5.5-3.5,4.8-2.7c-0.1,0.1,1.4,0.3,0.6,0.1
				c-1.5-0.4-6-1.2-6.9,0.7C195.5,411.7,198.4,412.7,199.9,413.1L199.9,413.1z"/>
		</g>
	</g>
	<g class="st3">
		<g>
			<path d="M231.5,423.3c-5.5,0.5-10.9,1-16.4,1.5c-1.7,0.1-3.9,1.1-2.4,2.9c1.5,1.8,5.3,2.1,7.3,1.9c5.5-0.5,10.9-1,16.4-1.5
				c1.7-0.1,3.9-1.1,2.4-2.9C237.4,423.4,233.6,423.1,231.5,423.3L231.5,423.3z"/>
		</g>
	</g>
	<g class="st3">
		<g>
			<path d="M239.5,403.9c-8.2,0.1-16.5,0.1-24.7,0.2c-0.8,0-4.4,0.1-4.3,1.7c1.1,13.8,2.3,27.6,3.4,41.5c0.2,2.5,4.7,3.3,6.6,3.2
				c8.3-0.3,16.5-0.5,24.8-0.8c7.4-0.2,2.7-5.1-2.3-4.9c-8.3,0.3-16.5,0.5-24.8,0.8c2.2,1.1,4.4,2.2,6.6,3.2
				c-1.1-13.8-2.3-27.6-3.4-41.5c-1.4,0.6-2.9,1.1-4.3,1.7c8.2-0.1,16.5-0.1,24.7-0.2c1.6,0,4.6-0.2,4.2-2.3
				C245.6,404.6,240.8,403.9,239.5,403.9L239.5,403.9z"/>
		</g>
	</g>
	<g class="st3">
		<g>
			<path d="M254.6,447.5c-0.1-13.1-0.3-26.2-0.4-39.3c-3.6-0.3-7.2-0.6-10.8-0.9c8.4,12.6,16.8,25.3,25.3,37.9
				c1.2,1.8,10.9,4.5,10.8,0.9c-0.5-13.1-1-26.3-1.5-39.4c-0.1-3.6-11-4.5-10.9-1.5c0.5,13.1,1,26.3,1.5,39.4
				c3.6,0.3,7.2,0.6,10.8,0.9c-8.4-12.6-16.8-25.3-25.3-37.9c-1.2-1.8-10.8-4.6-10.8-0.9c0.1,13.1,0.3,26.2,0.4,39.3
				C243.7,449.6,254.6,450.6,254.6,447.5L254.6,447.5z"/>
		</g>
	</g>
	<g class="st3">
		<g>
			<path d="M280.3,410.5c9.6-1.4,19.2-2.8,28.9-4.1c1.8-0.3,3.7-1,2.4-2.9c-1.2-1.8-5.4-2.2-7.3-1.9c-9.6,1.4-19.2,2.8-28.9,4.1
				c-1.8,0.3-3.7,1-2.4,2.9C274.2,410.4,278.4,410.8,280.3,410.5L280.3,410.5z"/>
		</g>
	</g>
	<g class="st3">
		<g>
			<path d="M289.7,406.2c0.3,12.4,0.6,24.8,0.9,37.2c0.1,3.6,11,4.5,10.9,1.5c-0.3-12.4-0.6-24.8-0.9-37.2
				C300.5,404.1,289.6,403.2,289.7,406.2L289.7,406.2z"/>
		</g>
	</g>
	<g class="st3">
		<g>
			<path d="M309.1,406.8c-0.6,10.7-1,24.9,4.9,34.3c3.9,6.3,12,8.3,18.8,6.1c7.4-2.4,10.7-10.1,12.5-17c1.5-5.9,2.3-12.1,2.3-18.2
				c0-3.6-10.9-4.6-10.9-1.5c0,5.4-0.6,11-1.8,16.3c-0.9,4-2.1,8-4.4,11.4c-1.2,1.7-2.5,2.7-4,4.1c-2.5,2.1-0.8-1-0.1,1
				c-0.3-0.9-1.9-2.2-2.4-3.2c-0.9-1.7-1.5-3.5-1.9-5.2c-1.1-3.8-1.5-7.8-1.8-11.7c-0.4-4.9-0.5-9.9-0.2-14.8
				C320.2,404.8,309.3,403.6,309.1,406.8L309.1,406.8z"/>
		</g>
	</g>
	<g class="st3">
		<g>
			<path d="M352.9,412.7c-0.4,13-0.8,26-1.2,39c-0.1,3.5,10.8,4.7,10.9,1.5c0.4-13,0.8-26,1.2-39C363.9,410.7,353,409.6,352.9,412.7
				L352.9,412.7z"/>
		</g>
	</g>
	<g class="st3">
		<g>
			<path d="M357.3,417.5c-1.8,0.1-0.3,0,0.5,0c1.1,0,2.2,0,3.3,0c2.7,0.1,5.1,0.2,7,0.7c0.9,0.2,0.9,0.4,0.9,0.2
				c0.1,0.9,0.2,1.1-0.2,2.1c-1.9,4.5-10,7.6-13.8,9.6c-1.1,0.6-1.1,1.5-0.3,2.4c5.8,6.9,11.6,13.8,17.4,20.6c2,2.3,12.6,2.4,9.7-1
				c-5.8-6.9-11.6-13.8-17.4-20.6c-0.1,0.8-0.2,1.6-0.3,2.4c6-3.1,24.9-13.2,10.5-18.8c-6.8-2.7-14.9-2.6-22.1-2.3
				c-1.8,0.1-3.7,1.1-2.4,2.9C351.3,417.5,355.4,417.6,357.3,417.5L357.3,417.5z"/>
		</g>
	</g>
	<g class="st3">
		<g>
			<path d="M380,412.6c3.9,8.8,7.8,17.7,11.7,26.5c1.4,3.1,12,3.3,10.7,0.2c-3.9-8.8-7.8-17.7-11.7-26.5
				C389.4,409.8,378.7,409.6,380,412.6L380,412.6z"/>
		</g>
	</g>
	<g class="st3">
		<g>
			<path d="M405.3,414.8c-6.4,11.4-12.7,22.8-19.1,34.2c-1.8,3.2,8.8,5.5,10.3,2.7c6.4-11.4,12.7-22.8,19.1-34.2
				C417.5,414.2,406.9,412,405.3,414.8L405.3,414.8z"/>
		</g>
	</g>
	<g class="st3">
		<g>
			<path d="M61.3,477.3c1.7,12.5,3.3,25,5,37.5c0.5,3.7,11.3,4.2,10.9,1.5c-1.7-12.5-3.3-25-5-37.5
				C71.7,475.2,60.9,474.6,61.3,477.3L61.3,477.3z"/>
		</g>
	</g>
	<g class="st3">
		<g>
			<path d="M65.4,480.5c2.4,0,4.7,0.1,7.1,0.2c2.8,0.1,3.6,0.2,5.6,0.4c1.1,0.1,2.3,0.3,3.4,0.4c0.6,0.1,1.2,0.2,1.9,0.3
				c-1.3-0.3,0.3,0.1,0.5,0.1c0.5,0.1,0.9,0.2,1.4,0.4c1.1,0.3-0.9-0.4,0.4,0.1c0.3,0.1,1.4,0.7,0.3,0.1c0.7,0.4,0.3,0.1,0.3,0.1
				c0.2,0.3,0.6,0.6-0.1,1.8c-1.2,1.9-3.8,3.1-5.6,4.1c-4.5,2.4-9.2,4.3-14,6c-2,0.7-2.3,2.1-0.5,3.3c1.8,1.3,5.6,1.9,7.7,1.1
				c3.3-1.2,30-9.6,22.3-17.3c-3-2.9-7.9-3.8-11.8-4.6c-4.4-0.8-8.9-1.2-13.4-1.4c-2.6-0.1-5.2-0.2-7.7-0.2c-1.4,0-4.8,0.2-4.2,2.3
				C59.5,479.9,63.8,480.5,65.4,480.5L65.4,480.5z"/>
		</g>
	</g>
	<g class="st3">
		<g>
			<path d="M70.4,495.4c6,5.9,12.1,11.8,18.1,17.7c1.7,1.7,5,2.2,7.3,1.9c1.4-0.2,4.2-1.2,2.4-2.9c-6-5.9-12.1-11.8-18.1-17.7
				c-1.7-1.7-5-2.2-7.3-1.9C71.4,492.7,68.6,493.7,70.4,495.4L70.4,495.4z"/>
		</g>
	</g>
	<g class="st3">
		<g>
			<path d="M125.8,476c-6.2-1.4-13.1-1.9-19.3-0.2c-11,3.2-11.6,14.3-7.5,23.6c9.1,20.3,45.2,17.1,41.6-8.2
				c-1.9-13.6-13.4-22.3-27-21c-1.8,0.2-3.7,1.1-2.4,2.9c1.3,1.8,5.4,2.1,7.3,1.9c4.1-0.4,7.6,4.9,9.1,8.1c2.1,4.4,3,9.5,2,14.4
				c-1.5,6.9-9.2,14-15.6,8.2c-5.6-5-10.4-19.3-2.6-24.4c2.2-1.4,5-1.7,7.6-1.5c0.6,0,1.7,0.2,2.9,0.3c1.6,0.2,0.1,0,0.3,0.1
				c1.5,0.3,6,1.2,6.9-0.7C130.1,477.5,127.3,476.4,125.8,476L125.8,476z"/>
		</g>
	</g>
	<g class="st3">
		<g>
			<path d="M153.7,511.3c2.3-12.7,4.5-25.4,6.8-38.1c-3.6-0.3-7.2-0.6-10.8-0.9c5.1,8.1,10.1,16.3,15.2,24.4
				c1.5,2.4,9.5,4.3,10.8,0.9c3.3-9.1,6.7-18.2,10-27.2c-3.6-0.3-7.2-0.6-10.8-0.9c3.3,12.5,6.7,25,10,37.5
				c0.8,3.1,11.6,3.8,10.7,0.2c-3.3-12.5-6.7-25-10-37.5c-0.8-2.9-9.7-3.9-10.8-0.9c-3.3,9.1-6.7,18.2-10,27.2
				c3.6,0.3,7.2,0.6,10.8,0.9c-5.1-8.1-10.1-16.3-15.2-24.4c-1.3-2.1-10.1-4.6-10.8-0.9c-2.3,12.7-4.5,25.4-6.8,38.1
				C142.2,513,153.1,514.7,153.7,511.3L153.7,511.3z"/>
		</g>
	</g>
	<g class="st3">
		<g>
			<path d="M206.2,511.3c5-13.7,9.9-27.3,14.9-41c-3.6-0.3-7.2-0.6-10.8-0.9c4.7,14.3,9.4,28.7,14.1,43c1,3.1,11.8,3.6,10.7,0.2
				c-4.7-14.3-9.4-28.7-14.1-43c-0.9-2.9-9.7-3.9-10.8-0.9c-5,13.7-9.9,27.3-14.9,41C194.3,512.4,204.9,514.8,206.2,511.3
				L206.2,511.3z"/>
		</g>
	</g>
	<g class="st3">
		<g>
			<path d="M205.9,494c6-0.1,12-0.3,17.9-0.4c1.4,0,4.8-0.2,4.2-2.3c-0.5-2-4.9-2.6-6.5-2.6c-6,0.1-12,0.3-17.9,0.4
				c-1.4,0-4.8,0.2-4.2,2.3C200,493.3,204.4,494,205.9,494L205.9,494z"/>
		</g>
	</g>
	<g class="st3">
		<g>
			<path d="M241.2,507.8c0-11.5,0-23.1,0-34.6c-3.4-0.1-6.9-0.2-10.3-0.2c9,10.4,18,20.9,27,31.3c1.4,1.6,9.9,3.6,10.3,0.2
				c1.5-11.4,3-22.8,4.5-34.2c0.4-3.3-10.5-4.8-10.9-1.5c-1.5,11.4-3,22.8-4.5,34.2c3.4,0.1,6.9,0.2,10.3,0.2
				c-9-10.4-18-20.9-27-31.3c-1.3-1.5-10.3-3.6-10.3-0.2c0,11.5,0,23.1,0,34.6C230.3,509.9,241.2,510.9,241.2,507.8L241.2,507.8z"/>
		</g>
	</g>
	<g class="st3">
		<g>
			<path d="M308.1,483.2c-2.4-6.8-6.9-13.7-14.2-15.7c-11.8-3.3-20.5,6.5-21.9,17.6c-1.3,10.2,3.3,20.1,14.3,21.4
				c6,0.7,12.6-1.7,17.5-5.1c1.7-1.2,4.6-3.4,4.4-5.8c-0.2-3.6-11.1-4.4-10.9-1.5c0.3,4.4-8.9,6.5-11.5,7.6c2.8-1.2,1.3,1,0.9-0.2
				c-0.2-0.5-1-1.1-1.3-1.5c-0.9-1.2-1.5-2.8-1.9-4.2c-1-3.3-1-6.9-0.5-10.3c0.6-3.7,2-7.2,4.4-10.1c0.6-0.8,4-3.1,4-3.5
				c0-0.4-1.4-1.1-1.3-0.4c0,0.3,1.2,1,1.4,1.2c2.7,2.7,4.6,6.5,5.8,10.1C298.5,486.1,309.2,486.5,308.1,483.2L308.1,483.2z"/>
		</g>
	</g>
	<g class="st3">
		<g>
			<path d="M334.3,464.6c-7.9,0-15.8,0-23.7,0c-0.9,0-4.3,0.1-4.3,1.7c0,12.2,0,24.4,0,36.7c0,3,6,3.4,7.9,3.2
				c8.7-0.9,17.3-1.8,26-2.7c1.8-0.2,3.7-1.1,2.4-2.9c-1.3-1.8-5.4-2.1-7.3-1.9c-8.7,0.9-17.3,1.8-26,2.7c2.6,1.1,5.3,2.1,7.9,3.2
				c0-12.2,0-24.4,0-36.7c-1.4,0.6-2.9,1.1-4.3,1.7c7.9,0,15.8,0,23.7,0c1.6,0,4.6-0.2,4.2-2.3C340.5,465.2,335.7,464.6,334.3,464.6
				L334.3,464.6z"/>
		</g>
	</g>
	<g class="st3">
		<g>
			<path d="M318.6,483c-3.1,0.4-6.2,0.9-9.3,1.3c-1.4,0.2-4.1,1.2-2.4,2.9c1.6,1.7,5.1,2.2,7.3,1.9c3.1-0.4,6.2-0.9,9.3-1.3
				c1.4-0.2,4.1-1.2,2.4-2.9C324.3,483.2,320.8,482.7,318.6,483L318.6,483z"/>
		</g>
	</g>
</g>
<g id="Image_4" class="st0">
	
		<image style="display:inline;overflow:visible;" width="750" height="750" xlink:href="images4.jpg"  transform="matrix(0.48 0 0 0.48 35.5 36)">
	</image>
	<g class="st3">
		<g>
			<path d="M48.5,422.4c16.3-1.8,32.7-3.7,49-5.5c1.8-0.2,3.7-1,2.4-2.9c-1.3-1.8-5.4-2.1-7.3-1.9c-16.3,1.8-32.7,3.7-49,5.5
				c-1.8,0.2-3.7,1-2.4,2.9C42.5,422.3,46.6,422.6,48.5,422.4L48.5,422.4z"/>
		</g>
	</g>
	<g class="st3">
		<g>
			<path d="M62.6,416.5c0.8,12.8,1.7,25.5,2.5,38.2c0.2,3.6,11.1,4.4,10.9,1.5c-0.8-12.8-1.7-25.5-2.5-38.2
				C73.3,414.4,62.4,413.6,62.6,416.5L62.6,416.5z"/>
		</g>
	</g>
	<g class="st3">
		<g>
			<path d="M93.6,413.7c1.3,12.8,2.7,25.7,4,38.5c0.4,3.7,11.2,4.3,10.9,1.5c-1.3-12.8-2.7-25.7-4-38.5
				C104.1,411.6,93.3,411,93.6,413.7L93.6,413.7z"/>
		</g>
	</g>
	<g class="st3">
		<g>
			<path d="M118.7,417.1c2,11.9,4,23.8,6,35.8c0.5,3,11.3,4,10.7,0.2c-2-11.9-4-23.8-6-35.8C128.9,414.4,118.1,413.3,118.7,417.1
				L118.7,417.1z"/>
		</g>
	</g>
	<g class="st3">
		<g>
			<path d="M102.2,436.2c8.7,0.5,17.3,0.9,26,1.4c1.6,0.1,4.6-0.2,4.2-2.3c-0.3-2-5.1-2.5-6.5-2.6c-8.7-0.5-17.3-0.9-26-1.4
				c-1.6-0.1-4.6,0.2-4.2,2.3C96,435.7,100.8,436.1,102.2,436.2L102.2,436.2z"/>
		</g>
	</g>
	<g class="st3">
		<g>
			<path d="M134.1,416.5c1.3,11.9,2.7,23.8,4,35.8c0.4,3.7,11.2,4.3,10.9,1.5c-1.3-11.9-2.7-23.8-4-35.8
				C144.6,414.3,133.8,413.7,134.1,416.5L134.1,416.5z"/>
		</g>
	</g>
	<g class="st3">
		<g>
			<path d="M170.5,413.1c-6.2,2-12.9,4.3-18.1,8.3c-7.3,5.6-0.8,10.6,5.4,13.2c4.2,1.8,19.1,4.6,11,10.7c-5.1,3.8-12.1,5.8-18.2,7.5
				c-2.2,0.6-2,2.1-0.5,3.3c1.9,1.4,5.5,1.7,7.7,1.1c7.5-2,35.9-11.5,18.9-20.6c-3.2-1.7-19.7-5.3-16.4-10.4
				c3.1-4.7,12.1-7.1,17.3-8.7c2.2-0.7,2.1-2,0.5-3.3C176.4,412.7,172.6,412.4,170.5,413.1L170.5,413.1z"/>
		</g>
	</g>
	<g class="st3">
		<g>
			<path d="M214.5,458c1-13.3,2-26.7,3-40c0.3-3.4-10.7-4.7-10.9-1.5c-1,13.3-2,26.7-3,40C203.4,459.9,214.3,461.2,214.5,458
				L214.5,458z"/>
		</g>
	</g>
	<g class="st3">
		<g>
			<path d="M241,415.6c-6.1,1.1-13,2.4-18.1,6c-7.3,5.1,0.6,11,5.4,14.3c3.8,2.6,17.9,9.1,9.9,14.1c-3.2,2-7,3-10.6,3.9
				c-2,0.5-5.7,1.3-6.4,1.4c-7,1.2,1.3,5.4,4.9,4.8c7.3-1.2,34.3-6.3,22.5-17.8c-3.2-3.1-7.2-5.3-10.8-7.7c-2-1.3-7.6-4.3-7.3-7.3
				c0.3-2.9,5.8-4.3,8.1-5c1.7-0.5,3.4-1,5.2-1.4c0.6-0.1,3.7-0.7,2.2-0.5C252.9,419.2,244.6,415,241,415.6L241,415.6z"/>
		</g>
	</g>
	<g class="st3">
		<g>
			<path d="M145.9,514.7c4-12.6,8-25.1,12-37.7c-3.6-0.3-7.2-0.6-10.8-0.9c3.3,8.8,6.7,17.5,10,26.2c1,2.6,9,3.9,10.5,1.5
				c5.5-8.8,11-17.5,16.5-26.2c-3.5-0.7-7.1-1.4-10.6-2.1c2,12.6,4,25.1,6,37.7c0.6,3.7,11.3,4.1,10.9,1.5c-2-12.6-4-25.1-6-37.7
				c-0.5-3.1-8.9-4.8-10.6-2.1c-5.5,8.8-11,17.5-16.5,26.2c3.5,0.5,7,1,10.5,1.5c-3.3-8.8-6.7-17.5-10-26.2c-1-2.7-9.8-4.1-10.8-0.9
				c-4,12.6-8,25.1-12,37.7C134.1,516,144.8,518.2,145.9,514.7L145.9,514.7z"/>
		</g>
	</g>
	<g class="st3">
		<g>
			<path d="M187.6,478.9c3.2,6,6.3,11.9,9.5,17.9c1.6,3,12.2,3,10.7,0.2c-3.2-6-6.3-11.9-9.5-17.9
				C196.7,476.1,186.1,476.1,187.6,478.9L187.6,478.9z"/>
		</g>
	</g>
	<g class="st3">
		<g>
			<path d="M206.8,477.6c-6.3,11.7-12.7,23.3-19,35c-1.8,3.3,8.8,5.5,10.3,2.7c6.3-11.7,12.7-23.3,19-35
				C218.9,477.1,208.3,474.8,206.8,477.6L206.8,477.6z"/>
		</g>
	</g>
	<g class="st3">
		<g>
			<path d="M248.4,473.6c-2.5,13.8-5,27.7-7.5,41.5c-0.6,3.2,10.3,4.9,10.9,1.5c2.5-13.8,5-27.7,7.5-41.5
				C259.9,471.9,249,470.2,248.4,473.6L248.4,473.6z"/>
		</g>
	</g>
	<g class="st3">
		<g>
			<path d="M244.6,517.9c10,2.1,24,1.7,30.5-7.4c5.1-7.2,4.9-18.5,1.2-26.2c-3.4-7.1-10.4-10.8-17.9-12.2c-5.1-1-10.6-1-15.7,0.1
				c-2.3,0.5-2,2.1-0.5,3.3c1.9,1.5,5.4,1.6,7.7,1.1c1-0.2-1,0.1,0.1,0c0.8-0.1,1.7-0.2,2.5-0.3c1.2-0.1,3.4-0.1,5.2,0.5
				c8.4,2.6,10.5,13.2,10,20.8c-0.4,7.4-4,14-11.6,15.8c-2.3,0.6-4.3,0.6-6.5,0.5c0.8,0-4.7-0.8-1.6-0.1c-1.5-0.3-6-1.2-6.9,0.7
				C240.3,516.4,243.1,517.6,244.6,517.9L244.6,517.9z"/>
		</g>
	</g>
	<g class="st3">
		<g>
			<path d="M299.8,472.2c-5.3,0.2-10.8,1.9-14.7,5.8c-7.7,7.8-5.2,23.1,0.5,31.3c12.9,18.6,46.2,5.4,43.4-16.9
				c-2-16.1-20.9-19.4-33.6-14.5c-2.4,0.9,0.4,3,1.5,3.5c2.3,1,5.2,1.1,7.6,0.2c6.2-2.4,10.7,0.4,12.9,6.5c1.9,5.3,0.7,11.4-2.4,16
				c-3.4,5.1-11.6,11.9-16.8,7.4c-6.8-5.9-9.4-20.7-4.5-28.5c1.4-2.3,3.6-4.1,6-5.1c0.5-0.2,3.1-0.9,2.3-0.7
				c0.6-0.2,2.7-0.2,0.1-0.1C309.5,476.8,304.8,472,299.8,472.2L299.8,472.2z"/>
		</g>
	</g>
	<g class="st3">
		<g>
			<path d="M372.2,486.5c-6.1-11.9-21.8-22.4-34.1-12c-8.3,7.1-15.1,20.5-10.4,31.2c3.1,7.2,9.8,11.9,17.5,12.9
				c12.6,1.7,21.2-7.2,26.8-17.4c1.8-3.3-8.8-5.5-10.3-2.7c-2.6,4.8-5.7,9.7-10.2,12.9c-1.9,1.4-4.8,2.8-6.4,2.3
				c-7.3-2.3-9.1-13.6-7.5-19.6c1.5-5.5,4.9-11,8.8-15.2c2.3-2.4,4.6-4.6,6.7-2.8c3.4,2.8,6.2,6.1,8.3,10
				C363.1,489.3,373.7,489.3,372.2,486.5L372.2,486.5z"/>
		</g>
	</g>
	<g class="st3">
		<g>
			<path d="M352.4,502.3c5.2,0,10.4,0,15.6,0c-2.2-1.1-4.4-2.2-6.6-3.2c0,6.7,0,13.3,0,20c0,3.6,10.9,4.6,10.9,1.5
				c0-6.7,0-13.3,0-20c0-2.5-4.9-3.2-6.6-3.2c-5.2,0-10.4,0-15.6,0c-1.4,0-4.8,0.2-4.2,2.3C346.5,501.7,350.9,502.3,352.4,502.3
				L352.4,502.3z"/>
		</g>
	</g>
</g>
<g id="Image_5" class="st0">
	
		<image style="display:inline;overflow:visible;" width="750" height="750" xlink:href="images5.jpg"  transform="matrix(0.48 0 0 0.48 35.5 36)">
	</image>
	<g class="st3">
		<g>
			<path d="M32.6,438.4c1.7,12.7,3.4,25.3,5.2,38c0.5,3.7,11.3,4.2,10.9,1.5c-1.7-12.7-3.4-25.3-5.2-38
				C43,436.3,32.3,435.7,32.6,438.4L32.6,438.4z"/>
		</g>
	</g>
	<g class="st3">
		<g>
			<path d="M65.6,470c-10,1.6-20,3.1-30,4.7c-1.8,0.3-3.7,1-2.4,2.9c1.2,1.8,5.5,2.2,7.3,1.9c10-1.6,20-3.1,30-4.7
				c1.8-0.3,3.7-1,2.4-2.9C71.7,470.2,67.5,469.8,65.6,470L65.6,470z"/>
		</g>
	</g>
	<g class="st3">
		<g>
			<path d="M67.8,442.2c1.6,11.4,3.1,22.8,4.7,34.2c0.5,3.7,11.3,4.2,10.9,1.5c-1.6-11.4-3.1-22.8-4.7-34.2
				C78.2,440,67.4,439.5,67.8,442.2L67.8,442.2z"/>
		</g>
	</g>
	<g class="st3">
		<g>
			<path d="M106.8,436.7c-5.9-0.3-12.7,0.2-18.1,2.9c-7.4,3.7-8.2,13.1-0.8,17.4c3.9,2.3,8.7,2.8,13.2,3.1c2,0.1,4,0.1,6.1,0.2
				c0.5,0,1.6-0.1,2,0.1c-0.2-0.1-0.8-0.6-0.7-0.4c1.5,3.4-2.7,8.9-6.2,9.2c-1.1,0.1-2.3-0.4-3.3-0.7c-1.2-0.4-1.7-0.7-1.9-0.8
				c-2-1.2-5.4-2-7.7-1.1c-1.8,0.7-2.6,2.1-0.5,3.3c6.6,3.7,16.4,6.2,23.6,2.8c3.7-1.8,7.7-6.4,7.1-10.8c-0.5-3.9-5.1-5.3-8.4-5.9
				c-5.5-1-20.2,2.1-17.5-8.1c1.6-6.1,10.6-6.4,15.4-6.1c1.6,0.1,4.5-0.2,4.2-2.3C112.9,437.3,108.1,436.8,106.8,436.7L106.8,436.7z
				"/>
		</g>
	</g>
	<g class="st3">
		<g>
			<path d="M119.7,445.3c10.2-1.3,20.3-2.5,30.5-3.8c1.8-0.2,3.7-1,2.4-2.9c-1.3-1.8-5.4-2.1-7.3-1.9c-10.2,1.3-20.3,2.5-30.5,3.8
				c-1.8,0.2-3.7,1-2.4,2.9C113.7,445.3,117.8,445.6,119.7,445.3L119.7,445.3z"/>
		</g>
	</g>
	<g class="st3">
		<g>
			<path d="M125.5,440.9c1.7,9.2,3.4,18.4,5.2,27.7c0.6,3,11.4,4,10.7,0.2c-1.7-9.2-3.4-18.4-5.2-27.7
				C135.6,438.1,124.8,437.2,125.5,440.9L125.5,440.9z"/>
		</g>
	</g>
	<g class="st3">
		<g>
			<path d="M178.3,435.8c-4.9,4.9-9.4,11.2-11.4,17.9c-3.6,12,5.9,20.5,16.9,23.2c10.1,2.5,20.3-0.9,26.2-9.6
				c3.9-5.9,7.6-16.2,2.3-22.4c-4.3-5.1-13-5.2-19-6.1c-6.3-0.9-12.6-1.7-18.9-2.2c-1.6-0.1-4.5,0.2-4.2,2.3c0.3,2,5.1,2.5,6.5,2.6
				c1.1,0.1-1.6-0.1,0.2,0c1.2,0.1,2.3,0.2,3.5,0.3c3.8,0.4,7.6,0.9,11.4,1.4c5.7,0.8,10.3-0.5,11.8,4.9c2.2,7.9-3.3,18.2-9.9,22.5
				c-9.5,6.2-18.4-4.7-16.2-14.2c1.6-6.8,6.3-13.2,11.2-18C190.8,436.4,180.8,433.4,178.3,435.8L178.3,435.8z"/>
		</g>
	</g>
	<g class="st3">
		<g>
			<path d="M228.3,474c-2-12.7-4.1-25.3-6.1-38c-0.6-3.7-11.3-4.1-10.9-1.5c2,12.7,4.1,25.3,6.1,38C218,476.2,228.7,476.6,228.3,474
				L228.3,474z"/>
		</g>
	</g>
	<g class="st3">
		<g>
			<path d="M241,429.6c-11.4,1.7-22.7,3.4-34.1,5.1c-1.8,0.3-3.7,1-2.4,2.9c1.2,1.8,5.5,2.2,7.3,1.9c11.4-1.7,22.7-3.4,34.1-5.1
				c1.8-0.3,3.7-1,2.4-2.9C247.1,429.7,242.9,429.3,241,429.6L241,429.6z"/>
		</g>
	</g>
	<g class="st3">
		<g>
			<path d="M241,448.6c-6.9,1.1-13.7,2.2-20.6,3.3c-1.7,0.3-3.7,1-2.4,2.9c1.2,1.8,5.5,2.2,7.3,1.9c6.9-1.1,13.7-2.2,20.6-3.3
				c1.7-0.3,3.7-1,2.4-2.9C247.1,448.7,242.9,448.3,241,448.6L241,448.6z"/>
		</g>
	</g>
	<g class="st3">
		<g>
			<path d="M275.7,475.8c-1.2-12.3-2.5-24.7-3.7-37c-3.4-0.1-6.9-0.2-10.3-0.2c9.5,10.5,19.1,20.9,28.6,31.4
				c1.2,1.3,10.7,3.5,10.3,0.2c-1.2-12-2.5-24.1-3.7-36.1c-0.4-3.7-11.2-4.3-10.9-1.5c1.2,12,2.5,24.1,3.7,36.1
				c3.4,0.1,6.9,0.2,10.3,0.2c-9.5-10.5-19.1-20.9-28.6-31.4c-1.2-1.3-10.6-3.5-10.3-0.2c1.2,12.3,2.5,24.7,3.7,37
				C265.2,477.9,276,478.5,275.7,475.8L275.7,475.8z"/>
		</g>
	</g>
	<g class="st3">
		<g>
			<path d="M309,471.5c1.7-11.4,3.4-22.8,5.2-34.2c-3.6-0.3-7.2-0.6-10.8-0.9c5.9,11.4,11.9,22.8,17.8,34.2c1.6,3,12.1,3.1,10.7,0.2
				c-5.9-11.4-11.9-22.8-17.8-34.2c-1.2-2.2-10.3-4.4-10.8-0.9c-1.7,11.4-3.4,22.8-5.2,34.2C297.6,473.3,308.5,474.9,309,471.5
				L309,471.5z"/>
		</g>
	</g>
	<g class="st3">
		<g>
			<path d="M308.5,460.5c3.9-0.2,7.7-0.3,11.6-0.5c1.6-0.1,3.9-1.2,2.4-2.9c-1.6-1.8-5.1-2-7.3-1.9c-3.9,0.2-7.7,0.3-11.6,0.5
				c-1.6,0.1-3.9,1.2-2.4,2.9C302.8,460.5,306.3,460.6,308.5,460.5L308.5,460.5z"/>
		</g>
	</g>
	<g class="st3">
		<g>
			<path d="M338,471.5c0-11.4,0-22.8,0-34.2c-3.6-0.3-7.2-0.6-10.8-0.9c4.1,5.7,8.1,11.4,12.2,17.1c1.5,2.1,9.7,4.6,10.8,0.9
				c2-6.8,4.1-13.6,6.1-20.4c-3.6-0.3-7.2-0.6-10.8-0.9c5,12.5,10,25,15,37.5c1.2,3.1,12,3.4,10.7,0.2c-5-12.5-10-25-15-37.5
				c-1.1-2.7-9.8-4.1-10.8-0.9c-2,6.8-4.1,13.6-6.1,20.4c3.6,0.3,7.2,0.6,10.8,0.9c-4.1-5.7-8.1-11.4-12.2-17.1
				c-1.2-1.7-10.8-4.6-10.8-0.9c0,11.4,0,22.8,0,34.2C327.1,473.6,338,474.6,338,471.5L338,471.5z"/>
		</g>
	</g>
	<g class="st3">
		<g>
			<path d="M383.1,430.9c-6.6,1.1-13.1,2.2-19.7,3.3c-1.3,0.2-3.3,0.6-2.9,2.3c2.3,10.6,4.7,21.2,7,31.9c0.5,2.4,6.2,2.7,7.8,2.5
				c6.2-0.7,12.5-1.4,18.7-2.1c1.8-0.2,3.7-1,2.4-2.9c-1.3-1.8-5.4-2.1-7.3-1.9c-6.2,0.7-12.5,1.4-18.7,2.1c2.6,0.8,5.2,1.7,7.8,2.5
				c-2.3-10.6-4.7-21.2-7-31.9c-1,0.8-1.9,1.5-2.9,2.3c6.6-1.1,13.1-2.2,19.7-3.3C395,434.5,386.6,430.3,383.1,430.9L383.1,430.9z"
				/>
		</g>
	</g>
	<g class="st3">
		<g>
			<path d="M373.2,455.9c3.9-0.9,7.8-1.9,11.7-2.8c2.1-0.5,2.2-2.2,0.5-3.3c-2.2-1.3-5.3-1.7-7.7-1.1c-3.9,0.9-7.8,1.9-11.7,2.8
				c-2.1,0.5-2.2,2.2-0.5,3.3C367.7,456.1,370.8,456.5,373.2,455.9L373.2,455.9z"/>
		</g>
	</g>
	<g class="st3">
		<g>
			<path d="M402.9,469.5c5.9,0.3,12.7-0.2,18.1-2.9c7.4-3.7,8.2-13.1,0.8-17.4c-3.9-2.3-8.7-2.8-13.2-3.1c-2-0.1-4-0.1-6.1-0.2
				c-0.5,0-1.6,0.1-2-0.1c0.2,0.1,0.8,0.6,0.7,0.4c-1.5-3.4,2.7-8.9,6.1-9.3c1.1-0.1,2.3,0.3,3.3,0.7c1.2,0.4,1.7,0.7,1.9,0.8
				c2.1,1.2,5.4,2,7.7,1.1c1.8-0.7,2.6-2.1,0.5-3.3c-6.6-3.7-16.4-6.2-23.6-2.8c-3.7,1.8-7.7,6.4-7.1,10.8c0.5,3.9,5.1,5.3,8.4,5.9
				c5.5,1,20.2-2.2,17.5,8.1c-1.5,6.1-10.6,6.4-15.4,6.1c-1.6-0.1-4.5,0.2-4.2,2.3C396.8,469,401.6,469.5,402.9,469.5L402.9,469.5z"
				/>
		</g>
	</g>
</g>
<g id="Image_6" class="st0">
	
		<image style="display:inline;overflow:visible;" width="750" height="750" xlink:href="images6.jpg"  transform="matrix(0.48 0 0 0.48 35.5 36)">
	</image>
	<g class="st3">
		<g>
			<path d="M73.6,420.7c-8.4,1.1-16.9,2.1-25.3,3.2c-0.7,0.1-3.1,0.4-3,1.6c0.9,12.4,1.9,24.9,2.8,37.3c0.2,3,5.8,3.4,7.9,3.2
				c7.5-0.8,15-1.5,22.6-2.3c1.8-0.2,3.7-1.1,2.4-2.9c-1.3-1.8-5.4-2.1-7.3-1.9c-7.5,0.8-15,1.5-22.6,2.3c2.6,1.1,5.3,2.1,7.9,3.2
				c-0.9-12.4-1.9-24.9-2.8-37.3c-1,0.5-2,1.1-3,1.6c8.4-1.1,16.9-2.1,25.3-3.2c1.8-0.2,3.7-1,2.4-2.9
				C79.7,420.8,75.5,420.5,73.6,420.7L73.6,420.7z"/>
		</g>
	</g>
	<g class="st3">
		<g>
			<path d="M62.4,441.2c-4.6,0.9-9.2,1.7-13.8,2.6c-2.2,0.4-2.1,2.2-0.5,3.3c2.2,1.4,5.2,1.5,7.7,1.1c4.6-0.9,9.2-1.7,13.8-2.6
				c2.2-0.4,2.1-2.2,0.5-3.3C67.9,440.8,64.9,440.7,62.4,441.2L62.4,441.2z"/>
		</g>
	</g>
	<g class="st3">
		<g>
			<path d="M83.9,427.3c0.6,13.8,1.2,27.6,1.9,41.5c0.2,3.4,6.8,3.4,9.1,3c6.5-1.3,13-2.6,19.4-3.9c2.3-0.5,1.9-2.2,0.5-3.3
				c-2-1.5-5.4-1.5-7.7-1.1c-6.5,1.3-13,2.6-19.4,3.9c3,1,6,2,9.1,3c-0.6-13.8-1.2-27.6-1.9-41.5C94.6,425.2,83.8,424.4,83.9,427.3
				L83.9,427.3z"/>
		</g>
	</g>
	<g class="st3">
		<g>
			<path d="M137.1,425.6c-6.6,0.4-13.3,0.7-19.9,1.1c-0.8,0-3,0.5-3,1.6c0.1,13.9,0.2,27.9,0.3,41.8c0,2.5,4.9,3.2,6.6,3.2
				c7.2,0,14.5,0.1,21.7,0.1c1.6,0,4.6-0.2,4.2-2.3c-0.3-2-5.1-2.6-6.5-2.6c-7.2,0-14.5-0.1-21.7-0.1c2.2,1.1,4.4,2.2,6.6,3.2
				c-0.1-13.9-0.2-27.9-0.3-41.8c-1,0.5-2,1.1-3,1.6c6.6-0.4,13.3-0.7,19.9-1.1c1.8-0.1,3.7-1.1,2.4-2.9
				C143.1,425.6,139,425.5,137.1,425.6L137.1,425.6z"/>
		</g>
	</g>
	<g class="st3">
		<g>
			<path d="M139.5,450.1c-6.5-0.6-12.9-1.3-19.4-1.9c-1.4-0.1-5.5-0.5-5.8,1.6c-0.3,2,3.9,3,5.1,3.1c6.5,0.6,12.9,1.3,19.4,1.9
				c1.4,0.1,5.5,0.5,5.8-1.6C144.9,451.2,140.7,450.2,139.5,450.1L139.5,450.1z"/>
		</g>
	</g>
	<g class="st3">
		<g>
			<path d="M173,435.4c-6.1-6.5-20.7-11.9-25.5-1.3c-2.2,4.9-2.4,10.8-2.3,16.1c0.1,4.7,0.4,10.1,2.8,14.2
				c3.7,6.2,12.4,7.4,18.8,5.5c4.6-1.4,8.9-4.3,12.4-7.6c2.2-2-7.8-5.1-10.3-2.7c-2.3,2.2-5.1,4.1-8,5.4c-0.7,0.3-2,0.5-2.5,0.8
				c1.3-0.9,1.6,1.5,1-0.2c-0.4-1.3-1.7-2.6-2.1-4.1c-0.9-2.7-1.1-5.5-1.2-8.3c-0.2-5.1-0.1-10.8,1.5-15.7c0.5-1.4,1.6-2.5,2.1-3.8
				c0.7-1.9,0.7,0.5-0.2-0.7c-0.3-0.4-1.5-0.7-0.2,0.2c0.6,0.4,1.5,1,1.8,1.2c0.8,0.6,1.5,1.3,2.2,2
				C165.4,438.7,176,438.6,173,435.4L173,435.4z"/>
		</g>
	</g>
	<g class="st3">
		<g>
			<path d="M179.2,427.3c10.3-0.6,20.7-1.2,31-1.8c1.8-0.1,3.7-1.1,2.4-2.9c-1.3-1.9-5.4-2-7.3-1.9c-10.3,0.6-20.7,1.2-31,1.8
				c-1.8,0.1-3.7,1.1-2.4,2.9C173.2,427.3,177.3,427.4,179.2,427.3L179.2,427.3z"/>
		</g>
	</g>
	<g class="st3">
		<g>
			<path d="M184.2,423.2c0.8,12.9,1.7,25.9,2.5,38.8c0.2,3.6,11.1,4.4,10.9,1.5c-0.8-12.9-1.7-25.9-2.5-38.8
				C194.9,421.1,184,420.3,184.2,423.2L184.2,423.2z"/>
		</g>
	</g>
	<g class="st3">
		<g>
			<path d="M218.1,463.6c-0.7-12.9-1.3-25.9-2-38.8c-2.8,0.3-5.7,0.6-8.5,0.9c3.5,1.2,7,2.7,10.1,4.7c1.6,1.1,3.9,2.7,4.1,4.8
				c0.4,3.3-3.9,5.3-6.2,6.4c-0.6,0.3-1.2,1-0.8,1.7c3.7,6.5,7.3,12.9,11,19.4c1.7,3,12.2,2.9,10.7,0.2c-3.7-6.5-7.3-12.9-11-19.4
				c-0.3,0.6-0.5,1.2-0.8,1.7c7.2-3.5,11-9.2,3.9-15.2c-4.2-3.5-9.7-6-14.9-7.7c-1.1-0.4-8.6-2.1-8.5,0.9c0.7,12.9,1.3,25.9,2,38.8
				C207.4,465.7,218.2,466.5,218.1,463.6L218.1,463.6z"/>
		</g>
	</g>
	<g class="st3">
		<g>
			<path d="M234.7,425.9c2.3,14.8,4.7,29.6,7,44.4c0.6,3.7,11.3,4.1,10.9,1.5c-2.3-14.8-4.7-29.6-7-44.4
				C245,423.7,234.3,423.2,234.7,425.9L234.7,425.9z"/>
		</g>
	</g>
	<g class="st3">
		<g>
			<path d="M278.8,427.8c-7.4-3.4-22.4-7.5-28.3,0.5c-4.9,6.7-0.8,19,3.1,25.1c4.3,6.8,11.7,10,19.6,10.1c5,0,10.4-1.2,14.7-3.8
				c3.7-2.2-6.4-5.3-9.1-3.7c-2.3,1.4-5.6,2.8-8.3,2.5c-7.3-0.7-10.4-13.3-11.1-19c-0.5-4.8,0.5-10.9,6-10.6c2,0.1,4.5,0.9,7.2,2.2
				c1.8,0.8,5.8,1.6,7.6,0.2C282.2,429.8,280.5,428.6,278.8,427.8L278.8,427.8z"/>
		</g>
	</g>
	<g class="st3">
		<g>
			<path d="M326,427.3c-7.2,0.5-14.5,1-21.7,1.5c-0.7,0-3.1,0.5-3,1.6c1.2,13.2,2.5,26.5,3.7,39.7c0.3,3,5.7,3.4,7.9,3.2
				c6.5-0.8,13-1.6,19.4-2.4c1.8-0.2,3.7-1,2.4-2.9c-1.3-1.8-5.4-2.1-7.3-1.9c-6.5,0.8-13,1.6-19.4,2.4c2.6,1.1,5.3,2.1,7.9,3.2
				c-1.2-13.2-2.5-26.5-3.7-39.7c-1,0.5-2,1.1-3,1.6c7.2-0.5,14.5-1,21.7-1.5c1.8-0.1,3.7-1.1,2.4-2.9
				C332.1,427.3,328,427.2,326,427.3L326,427.3z"/>
		</g>
	</g>
	<g class="st3">
		<g>
			<path d="M320.9,448.7c-4.5,0-8.9,0-13.4,0c-1.4,0-4.8,0.2-4.2,2.3c0.6,2,4.9,2.6,6.5,2.6c4.5,0,8.9,0,13.4,0
				c1.4,0,4.8-0.2,4.2-2.3C326.8,449.2,322.4,448.7,320.9,448.7L320.9,448.7z"/>
		</g>
	</g>
	<g class="st3">
		<g>
			<path d="M346.9,469.3c4-13.4,8-26.8,12-40.3c0.9-2.9-9.9-5-10.9-1.5c-4,13.4-8,26.8-12,40.3C335.2,470.7,345.9,472.8,346.9,469.3
				L346.9,469.3z"/>
		</g>
	</g>
	<g class="st3">
		<g>
			<path d="M330.1,431.8c4.2,5.1,8.3,10.3,12.5,15.4c1.9,2.4,12.6,2.4,9.7-1c-4.2-5.1-8.3-10.3-12.5-15.4
				C337.9,428.4,327.3,428.3,330.1,431.8L330.1,431.8z"/>
		</g>
	</g>
	<g class="st3">
		<g>
			<path d="M378.8,425.1c-7.1,0.7-14.2,1.5-21.3,2.2c-0.7,0.1-3.1,0.5-3,1.6c0.9,12.9,1.9,25.9,2.8,38.8c0.2,3.3,6.8,3.5,9.1,3
				c6.2-1.5,12.3-2.9,18.5-4.4c2.3-0.5,2-2.1,0.5-3.3c-1.9-1.5-5.4-1.6-7.7-1.1c-6.2,1.5-12.3,2.9-18.5,4.4c3,1,6,2,9.1,3
				c-0.9-12.9-1.9-25.9-2.8-38.8c-1,0.5-2,1.1-3,1.6c7.1-0.7,14.2-1.5,21.3-2.2c1.8-0.2,3.7-1.1,2.4-2.9
				C384.8,425.1,380.7,424.9,378.8,425.1L378.8,425.1z"/>
		</g>
	</g>
	<g class="st3">
		<g>
			<path d="M370.9,444.2c-4,0.4-8.1,0.8-12.1,1.2c-1.6,0.2-4,1.1-2.4,2.9c1.6,1.8,5.2,2.1,7.3,1.9c4-0.4,8.1-0.8,12.1-1.2
				c1.6-0.2,4-1.1,2.4-2.9C376.7,444.4,373.1,444,370.9,444.2L370.9,444.2z"/>
		</g>
	</g>
</g>
<g id="Image_7" class="st0">
	
		<image style="display:inline;overflow:visible;" width="750" height="750" xlink:href="images7.jpg"  transform="matrix(0.48 0 0 0.48 35.5 36)">
	</image>
	<g class="st3">
		<g>
			<path d="M46.3,414.2c-7.2,1.6-15,5.7-19.5,11.7c-7.6,9.9-5.3,26.3,5.8,32.6c9.6,5.5,23.6,4.2,32.2-2.6c6.2-4.9,7.8-15.6,7.4-23.1
				c-0.9-15.7-15.8-19.7-29.3-18.6c-1.8,0.1-3.7,1.1-2.4,2.9c1.3,1.9,5.4,2,7.3,1.9c4.2-0.3,8.1-0.1,10.8,3.6
				c2.1,2.9,2.7,6.8,2.7,10.3c0,5.4-0.8,13.7-4.4,18c-3.6,4.4-12.5,8.3-17.6,4.5c-8.2-6.1-7.7-20.2-1.7-27.5c3.9-4.7,9.9-8,15.9-9.3
				c2.3-0.5,2-2.1,0.5-3.3C52,413.8,48.5,413.7,46.3,414.2L46.3,414.2z"/>
		</g>
	</g>
	<g class="st3">
		<g>
			<path d="M84.3,460.9c0.6-13.3,1.2-26.5,1.8-39.8c-3.4-0.1-6.9-0.2-10.3-0.2c9.6,12.1,19.3,24.2,28.9,36.3
				c1.4,1.7,9.9,3.5,10.3,0.2c1.7-12.9,3.5-25.8,5.2-38.7c0.4-3.3-10.4-4.8-10.9-1.5c-1.7,12.9-3.5,25.8-5.2,38.7
				c3.4,0.1,6.9,0.2,10.3,0.2c-9.6-12.1-19.3-24.2-28.9-36.3c-1.3-1.6-10.2-3.6-10.3-0.2c-0.6,13.3-1.2,26.5-1.8,39.8
				C73.2,462.9,84.1,464.1,84.3,460.9L84.3,460.9z"/>
		</g>
	</g>
	<g class="st3">
		<g>
			<path d="M150.1,449.6c-8.7,0.6-17.3,1.3-26,1.9c2.6,1.1,5.3,2.1,7.9,3.2c1.5-11.2,3-22.5,4.5-33.7c-1,0.5-2,1.1-3,1.6
				c7.9-1,15.7-1.9,23.6-2.9c1.8-0.2,3.7-1,2.4-2.9c-1.3-1.8-5.4-2.1-7.3-1.9c-7.9,1-15.7,1.9-23.6,2.9c-0.9,0.1-2.8,0.4-3,1.6
				c-1.5,11.2-3,22.5-4.5,33.7c-0.4,3,6.3,3.3,7.9,3.2c8.7-0.6,17.3-1.3,26-1.9c1.8-0.1,3.7-1.1,2.4-2.9
				C156.1,449.6,152,449.5,150.1,449.6L150.1,449.6z"/>
		</g>
	</g>
	<g class="st3">
		<g>
			<path d="M139.4,433.4c-4.3,0.4-8.7,0.8-13,1.3c-1.6,0.2-3.9,1.1-2.4,2.9c1.5,1.8,5.2,2.1,7.3,1.9c4.3-0.4,8.7-0.8,13-1.3
				c1.6-0.2,3.9-1.1,2.4-2.9C145.2,433.5,141.5,433.2,139.4,433.4L139.4,433.4z"/>
		</g>
	</g>
	<g class="st3">
		<g>
			<path d="M183.1,460c-1-12.3-2-24.7-3-37c-3.4-0.1-6.9-0.2-10.3-0.2c10.2,10.8,20.3,21.7,30.5,32.5c1.3,1.4,10.3,3.7,10.3,0.2
				c0-12.5,0-25,0-37.5c0-3.6-10.9-4.6-10.9-1.5c0,12.5,0,25,0,37.5c3.4,0.1,6.9,0.2,10.3,0.2c-10.2-10.8-20.3-21.7-30.5-32.5
				c-1.2-1.3-10.6-3.6-10.3-0.2c1,12.3,2,24.7,3,37C172.5,462.2,183.4,462.9,183.1,460L183.1,460z"/>
		</g>
	</g>
	<g class="st3">
		<g>
			<path d="M219.6,452.3c3-12.1,6-24.2,9-36.2c-3.6-0.3-7.2-0.6-10.8-0.9c5.5,13.9,11,27.8,16.5,41.6c1.2,3.1,11.9,3.4,10.7,0.2
				c-5.5-13.9-11-27.8-16.5-41.6c-1-2.6-10-4.2-10.8-0.9c-3,12.1-6,24.2-9,36.2C208,453.8,218.8,455.7,219.6,452.3L219.6,452.3z"/>
		</g>
	</g>
	<g class="st3">
		<g>
			<path d="M221.6,443.3c4-1.2,8-2.4,12-3.6c2-0.6,2.3-2.2,0.5-3.3c-2.1-1.3-5.4-1.8-7.7-1.1c-4,1.2-8,2.4-12,3.6
				c-2,0.6-2.3,2.2-0.5,3.3C216,443.5,219.3,444,221.6,443.3L221.6,443.3z"/>
		</g>
	</g>
	<g class="st3">
		<g>
			<path d="M253.1,452.3c1.2-12.1,2.3-24.2,3.5-36.2c-3.6-0.3-7.2-0.6-10.8-0.9c4.2,7.7,8.3,15.3,12.5,23c1.3,2.5,9.7,4.3,10.8,0.9
				c2.5-7.7,5-15.3,7.5-23c-3.6-0.3-7.2-0.6-10.8-0.9c3.8,12.1,7.7,24.2,11.5,36.2c1,3.1,11.8,3.7,10.7,0.2
				c-3.8-12.1-7.7-24.2-11.5-36.2c-0.9-2.8-9.8-4-10.8-0.9c-2.5,7.7-5,15.3-7.5,23c3.6,0.3,7.2,0.6,10.8,0.9
				c-4.2-7.7-8.3-15.3-12.5-23c-1.2-2.1-10.4-4.5-10.8-0.9c-1.2,12.1-2.3,24.2-3.5,36.2C241.9,454.2,252.8,455.6,253.1,452.3
				L253.1,452.3z"/>
		</g>
	</g>
	<g class="st3">
		<g>
			<path d="M312.2,409.9c-8.2,1-16.3,2-24.5,3c-1.4,0.2-3.2,0.6-2.9,2.3c2.2,12.1,4.3,24.2,6.5,36.2c0.4,2.4,6.3,2.7,7.8,2.5
				c8.7-1.2,17.3-2.5,26-3.8c1.8-0.3,3.7-1,2.4-2.9c-1.2-1.8-5.4-2.2-7.3-1.9c-8.7,1.2-17.3,2.5-26,3.8c2.6,0.8,5.2,1.7,7.8,2.5
				c-2.2-12.1-4.3-24.2-6.5-36.2c-1,0.8-1.9,1.5-2.9,2.3c8.2-1,16.3-2,24.5-3c1.8-0.2,3.7-1,2.4-2.9
				C318.3,410,314.1,409.6,312.2,409.9L312.2,409.9z"/>
		</g>
	</g>
	<g class="st3">
		<g>
			<path d="M295.9,435.8c4.3-0.5,8.7-1,13-1.5c1.6-0.2,3.9-1.1,2.4-2.9c-1.5-1.8-5.2-2.1-7.3-1.9c-4.3,0.5-8.7,1-13,1.5
				c-1.6,0.2-3.9,1.1-2.4,2.9C290.1,435.7,293.8,436.1,295.9,435.8L295.9,435.8z"/>
		</g>
	</g>
	<g class="st3">
		<g>
			<path d="M342,458.8c1.7-1.1,3.4-2.4,5-3.7c1.8-1.5,4.4-3.8,4.6-6.4c0.2-4.5-6.7-5.7-10-5.6c-3,0-6,0.8-8.7,2.2
				c-2.2,1.1,0.3,3,1.5,3.5c2.2,0.9,5.3,1.3,7.6,0.2c0.2-0.1,1.5-0.6,0.6-0.3c0.5-0.2,0.9-0.3,1.4-0.5c0.3-0.1,0.5-0.1,0.8-0.2
				c-0.5,0.1-0.5,0.1,0,0c-1-0.2-4.9,0.2-4.3-1.3c-0.1,0.2,0.2,0.6,0.2,0.7c0,0.7-0.4,1.2-0.8,1.8c-1.8,2.5-4.4,4.4-6.9,6
				c-2,1.3,0.1,2.9,1.5,3.5C336.5,459.4,340,460,342,458.8L342,458.8z"/>
		</g>
	</g>
	<g class="st3">
		<g>
			<path d="M129.1,516.4c1.8-12.7,3.7-25.3,5.5-38c-3.6-0.3-7.2-0.6-10.8-0.9c8.2,13.7,16.3,27.3,24.5,41c1.3,2.2,10,4.5,10.8,0.9
				c3.3-14.3,6.5-28.7,9.8-43c0.7-3.1-10.1-4.9-10.9-1.5c-3.3,14.3-6.5,28.7-9.8,43c3.6,0.3,7.2,0.6,10.8,0.9
				c-8.2-13.7-16.3-27.3-24.5-41c-1.2-2.1-10.3-4.5-10.8-0.9c-1.8,12.7-3.7,25.3-5.5,38C117.7,518.2,128.6,519.7,129.1,516.4
				L129.1,516.4z"/>
		</g>
	</g>
	<g class="st3">
		<g>
			<path d="M190.7,473.5c-7.2,1.6-15,5.7-19.5,11.7c-7.6,9.9-5.3,26.3,5.8,32.6c9.6,5.5,23.6,4.2,32.2-2.6
				c6.2-4.9,7.8-15.6,7.4-23.1c-0.9-15.7-15.8-19.7-29.3-18.6c-1.8,0.1-3.7,1.1-2.4,2.9c1.3,1.9,5.4,2,7.3,1.9
				c4.2-0.3,8.1-0.1,10.8,3.6c2.1,2.9,2.7,6.8,2.7,10.3c0,5.4-0.8,13.7-4.4,18c-3.6,4.4-12.5,8.3-17.6,4.5
				c-8.2-6.1-7.7-20.2-1.7-27.5c3.9-4.7,9.9-8,15.9-9.3c2.3-0.5,2-2.1,0.5-3.3C196.5,473.1,193,473,190.7,473.5L190.7,473.5z"/>
		</g>
	</g>
	<g class="st3">
		<g>
			<path d="M261.4,504.1c5.3,0,10.6-0.1,15.9-0.1c-2.2-0.9-4.3-1.7-6.5-2.6c2.7,6.8-2.8,14.5-8.6,17.7c-2.7,1.5-3.8,2.1-5.9,0.2
				c-4.6-4-6.1-11.6-6.9-17.3c-0.8-6.8-0.7-17.8,8-19.2c3.1-0.5,6.6,0.6,8.7,1.5c1.9,0.8,5.8,1.6,7.6,0.2c1.8-1.5,0.2-2.8-1.5-3.5
				c-10.1-4.2-27.9-6.5-32.7,6.2c-3.7,9.5-0.6,25.3,6.5,32.6c6.4,6.6,17.5,7.4,25.4,3c7.1-4,13.5-12.9,10.2-21.2
				c-0.8-2-4.8-2.6-6.5-2.6c-5.3,0-10.6,0.1-15.9,0.1c-1.6,0-4.6,0.2-4.2,2.3C255.2,503.5,260,504.1,261.4,504.1L261.4,504.1z"/>
		</g>
	</g>
	<g class="st3">
		<g>
			<path d="M294.6,519.4c3.5-12.8,7-25.6,10.5-38.4c-3.6-0.3-7.2-0.6-10.8-0.9c6.3,14.3,12.7,28.6,19,42.8c1.4,3.1,12,3.3,10.7,0.2
				c-6.3-14.3-12.7-28.6-19-42.8c-1.1-2.5-9.9-4.2-10.8-0.9c-3.5,12.8-7,25.6-10.5,38.4C282.9,520.8,293.7,522.9,294.6,519.4
				L294.6,519.4z"/>
		</g>
	</g>
	<g class="st3">
		<g>
			<path d="M295.5,506.9c5.4-0.9,10.7-1.9,16.1-2.8c1.6-0.3,3.9-1,2.4-2.9c-1.4-1.7-5.4-2.2-7.3-1.9c-5.4,0.9-10.7,1.9-16.1,2.8
				c-1.6,0.3-3.9,1-2.4,2.9C289.5,506.7,293.5,507.2,295.5,506.9L295.5,506.9z"/>
		</g>
	</g>
	<g class="st3">
		<g>
			<path d="M322.9,479.4c1.3,13.3,2.5,26.6,3.8,40c0.3,3.7,11.2,4.3,10.9,1.5c-1.3-13.3-2.5-26.6-3.8-40
				C333.5,477.3,322.6,476.6,322.9,479.4L322.9,479.4z"/>
		</g>
	</g>
	<g class="st3">
		<g>
			<path d="M351.3,520.9c0-14,0-28,0-42c-3.4-0.1-6.9-0.2-10.3-0.2c10.1,12.7,20.2,25.3,30.3,38c1.2,1.5,10.3,3.5,10.3,0.2
				c0-13.5,0-27,0-40.5c0-3.6-10.9-4.6-10.9-1.5c0,13.5,0,27,0,40.5c3.4,0.1,6.9,0.2,10.3,0.2c-10.1-12.7-20.2-25.3-30.3-38
				c-1.2-1.5-10.3-3.5-10.3-0.2c0,14,0,28,0,42C340.4,523,351.3,524,351.3,520.9L351.3,520.9z"/>
		</g>
	</g>
</g>
<g id="Image_8" class="st0">
	
		<image style="display:inline;overflow:visible;" width="750" height="750" xlink:href="images8.jpg"  transform="matrix(0.48 0 0 0.48 35.5 36)">
	</image>
	<g class="st3">
		<g>
			<path d="M37.9,466.8c4.7-14.5,9.3-29,14-43.5c-3.6-0.3-7.2-0.6-10.8-0.9c4.5,11.8,9,23.7,13.5,35.5c1.2,3.1,11.9,3.5,10.7,0.2
				c-4.5-11.8-9-23.7-13.5-35.5c-1-2.7-9.8-4.1-10.8-0.9c-4.7,14.5-9.3,29-14,43.5C26.2,468.1,36.8,470.3,37.9,466.8L37.9,466.8z"/>
		</g>
	</g>
	<g class="st3">
		<g>
			<path d="M43.1,454.5c4.5-1.5,9.1-2.9,13.6-4.4c2-0.7,2.3-2.1,0.5-3.3c-2-1.3-5.4-1.8-7.7-1.1c-4.5,1.5-9.1,2.9-13.6,4.4
				c-2,0.7-2.3,2.1-0.5,3.3C37.4,454.7,40.9,455.3,43.1,454.5L43.1,454.5z"/>
		</g>
	</g>
	<g class="st3">
		<g>
			<path d="M73.9,456.3c-1.5-12.3-3-24.7-4.5-37c-3.6-0.3-7.2-0.6-10.8-0.9c8.8,12.3,17.7,24.7,26.5,37c1.2,1.7,10.8,4.6,10.8,0.9
				c0-12.3,0-24.7,0-37c0-3.6-10.9-4.6-10.9-1.5c0,12.3,0,24.7,0,37c3.6,0.3,7.2,0.6,10.8,0.9c-8.8-12.3-17.7-24.7-26.5-37
				c-1.2-1.6-11.2-4.4-10.8-0.9c1.5,12.3,3,24.7,4.5,37C63.5,458.5,74.3,459.1,73.9,456.3L73.9,456.3z"/>
		</g>
	</g>
	<g class="st3">
		<g>
			<path d="M126.9,456.3c2.8-12.3,5.7-24.7,8.5-37c-3.6-0.3-7.2-0.6-10.8-0.9c6.3,12.3,12.7,24.7,19,37c1.5,3,12.1,3.1,10.7,0.2
				c-6.3-12.3-12.7-24.7-19-37c-1.2-2.4-10-4.4-10.8-0.9c-2.8,12.3-5.7,24.7-8.5,37C115.4,457.9,126.2,459.8,126.9,456.3
				L126.9,456.3z"/>
		</g>
	</g>
	<g class="st3">
		<g>
			<path d="M127.1,439.3c4.8-1,9.6-2,14.5-3c2.2-0.5,2.1-2.2,0.5-3.3c-2.1-1.4-5.3-1.6-7.7-1.1c-4.8,1-9.6,2-14.5,3
				c-2.2,0.5-2.1,2.2-0.5,3.3C121.6,439.6,124.7,439.8,127.1,439.3L127.1,439.3z"/>
		</g>
	</g>
	<g class="st3">
		<g>
			<path d="M147.2,415c2,11.7,4,23.4,6,35.1c0.5,2.8,7.1,2.8,9,2.3c8-1.9,16-3.9,24-5.8c2.3-0.6,2-2.1,0.5-3.3
				c-1.9-1.5-5.5-1.6-7.7-1.1c-8,1.9-16,3.9-24,5.8c3,0.8,6,1.5,9,2.3c-2-11.7-4-23.4-6-35.1C157.3,412.2,146.5,411.2,147.2,415
				L147.2,415z"/>
		</g>
	</g>
	<g class="st3">
		<g>
			<path d="M172.7,418.5c2.3,11.3,4.7,22.5,7,33.8c0.6,2.9,7,2.7,9,2.3c7.3-1.5,14.7-2.9,22-4.4c2.3-0.5,1.9-2.2,0.5-3.3
				c-2-1.5-5.4-1.5-7.7-1.1c-7.3,1.5-14.7,2.9-22,4.4c3,0.8,6,1.5,9,2.3c-2.3-11.3-4.7-22.5-7-33.8
				C182.7,415.6,171.9,414.8,172.7,418.5L172.7,418.5z"/>
		</g>
	</g>
	<g class="st3">
		<g>
			<path d="M212.3,495.2c-2.3-9.2-4.7-18.4-7-27.6c-3.4,0.1-6.8,0.3-10.2,0.4c8,9.2,16,18.4,24,27.6c1.3,1.5,10.3,3.6,10.3,0.2
				c0-10.5,0-21,0-31.6c0-3.6-10.9-4.6-10.9-1.5c0,10.5,0,21,0,31.6c3.4,0.1,6.9,0.2,10.3,0.2c-8-9.2-16-18.4-24-27.6
				c-1.5-1.7-11.2-3.5-10.2,0.4c2.3,9.2,4.7,18.4,7,27.6C202.4,498,213.3,498.8,212.3,495.2L212.3,495.2z"/>
		</g>
	</g>
	<g class="st3">
		<g>
			<path d="M256,461.1c-7.5,1.3-15,2.7-22.5,4c-0.7,0.1-3.1,0.4-3,1.6c1.2,9.9,2.3,19.8,3.5,29.8c0.4,3,5.7,3.4,7.9,3.2
				c6.3-0.7,12.7-1.5,19-2.2c1.8-0.2,3.7-1,2.4-2.9c-1.3-1.8-5.4-2.1-7.3-1.9c-6.3,0.7-12.7,1.5-19,2.2c2.6,1.1,5.3,2.1,7.9,3.2
				c-1.2-9.9-2.3-19.8-3.5-29.8c-1,0.5-2,1.1-3,1.6c7.5-1.3,15-2.7,22.5-4C268,464.6,259.6,460.4,256,461.1L256,461.1z"/>
		</g>
	</g>
	<g class="st3">
		<g>
			<path d="M244.8,476.9c-2.4,0.4-4.8,0.8-7.2,1.2c-1.4,0.2-4.1,1.1-2.4,2.9c1.6,1.6,5.2,2.3,7.3,1.9c2.4-0.4,4.8-0.8,7.2-1.2
				c1.4-0.2,4.1-1.1,2.4-2.9C250.5,477.1,247,476.5,244.8,476.9L244.8,476.9z"/>
		</g>
	</g>
	<g class="st3">
		<g>
			<path d="M263.7,467.4c2.3,9.9,4.7,19.8,7,29.8c0.7,2.8,9,3.7,10.5,1.5c3.5-5.1,7-10.2,10.5-15.3c-3.3-0.3-6.7-0.6-10-0.8
				c3.3,4.4,6.7,8.7,10,13.1c1.4,1.8,9.7,3.5,10.3,0.2c2-10.5,4-21,6-31.6c0.6-3.2-10.2-4.9-10.9-1.5c-2,10.5-4,21-6,31.6
				c3.4,0.1,6.9,0.2,10.3,0.2c-3.3-4.4-6.7-8.7-10-13.1c-1.5-1.9-8.4-3.2-10-0.8c-3.5,5.1-7,10.2-10.5,15.3c3.5,0.5,7,1,10.5,1.5
				c-2.3-9.9-4.7-19.8-7-29.8C273.6,464.5,262.8,463.7,263.7,467.4L263.7,467.4z"/>
		</g>
	</g>
	<g class="st3">
		<g>
			<path d="M337.7,496.4c4.8-11.3,9.7-22.5,14.5-33.8c1.1-2.5-9.4-5-10.9-1.5c-4.8,11.3-9.7,22.5-14.5,33.8
				C325.7,497.3,336.2,499.8,337.7,496.4L337.7,496.4z"/>
		</g>
	</g>
	<g class="st3">
		<g>
			<path d="M319.4,462.4c4.8,6.2,9.7,12.4,14.5,18.6c1.9,2.4,12.5,2.5,9.7-1c-4.8-6.2-9.7-12.4-14.5-18.6
				C327.2,458.9,316.6,458.8,319.4,462.4L319.4,462.4z"/>
		</g>
	</g>
	<g class="st3">
		<g>
			<path d="M363.6,459.7c-4.8,0.9-9.7,3-13.4,6.1c-7.2,5.9-6.8,14.8-2,22.3c5.3,8.2,15.7,11.8,25,8.7c7.8-2.6,12.1-9.1,11.1-17.3
				c-1.5-12.2-11.7-18.8-23.6-15.7c-2.3,0.6-2,2.1-0.5,3.3c1.9,1.5,5.5,1.7,7.7,1.1c1.9-0.5,0.2-0.6,1.3,0.5
				c0.7,0.7,1.2,1.4,1.7,2.2c1,1.7,1.7,3.7,2.1,5.6c0.7,3.4,0.9,7.5-0.9,10.5c-1.5,2.5-4,4.6-6.8,5.6c-3.3,1.2-5.8-2.6-7.4-5.4
				c-3.7-6.7-3.8-14,2.7-18.8c2.9-2.1,6.5-3.5,10-4.2c2.3-0.5,1.9-2.2,0.5-3.3C369.4,459.2,365.9,459.2,363.6,459.7L363.6,459.7z"/>
		</g>
	</g>
	<g class="st3">
		<g>
			<path d="M373.6,467.8c0.1,5,0.6,10,1.4,15c0.9,5.7,2.2,13.1,8.2,15.6c17.4,7.3,28.4-22,19.4-34.2c-1.4-1.9-4.2-2.5-6.5-2.6
				c-0.7,0-5.6,0.5-4.2,2.3c3,4,3.6,9.5,2.8,14.3c-0.9,5.4-3.9,11-7.8,14.8c-0.4,0.3-1.1,0.8-1.3,1.2c-0.7,1.2-0.2-0.1-0.1,0.3
				c2-0.5,3.4-0.2,4.5,0.9c0.1,0.1,0,0-0.3-0.3c0-0.2-0.5-0.6-0.6-0.9c-3.2-8-4.3-16.3-4.5-24.9
				C384.4,465.7,373.5,464.8,373.6,467.8L373.6,467.8z"/>
		</g>
	</g>
</g>
<g id="Image_9" class="st0">
	
		<image style="display:inline;overflow:visible;" width="750" height="750" xlink:href="images9.jpg"  transform="matrix(0.48 0 0 0.48 35.5 36)">
	</image>
	<g class="st3">
		<g>
			<path d="M27.1,406.9c1.3,12.5,2.5,25.1,3.8,37.6c0.4,3.7,11.2,4.3,10.9,1.5c-1.3-12.5-2.5-25.1-3.8-37.6
				C37.6,404.7,26.8,404.1,27.1,406.9L27.1,406.9z"/>
		</g>
	</g>
	<g class="st3">
		<g>
			<path d="M55.5,446c0-11.3,0-22.6,0-33.9c-3.4-0.1-6.9-0.2-10.3-0.2c8.4,10.2,16.7,20.5,25.1,30.7c1.2,1.5,10.3,3.5,10.3,0.2
				c0-10.2,0-20.5,0-30.7c0-3.6-10.9-4.6-10.9-1.5c0,10.2,0,20.5,0,30.7c3.4,0.1,6.9,0.2,10.3,0.2c-8.4-10.2-16.7-20.5-25.1-30.7
				c-1.2-1.5-10.3-3.5-10.3-0.2c0,11.3,0,22.6,0,33.9C44.6,448,55.5,449.1,55.5,446L55.5,446z"/>
		</g>
	</g>
	<g class="st3">
		<g>
			<path d="M120.1,452.9c0-13.6,0-27.2,0-40.8c-1.9,0.5-3.9,1.1-5.8,1.6c0.2,0,0.6,0,0.7,0.1c0.2,0.1,0.5,0.1,0.8,0.1
				c1.2,0.4-1.3-0.3,0.2,0c2.2,0.5,4.4,1,6.6,1.6c3.1,0.8,9.2,1.9,11,4.9c2.8,4.5-8,7.7-10.5,8.6c-4.1,1.4-8.8,2.2-12.6,2.9
				c0.4-0.1,0.2,0.3,0.1-0.1c-1.1-3.1-11.9-3.5-10.7-0.2c2.2,6,13.9,5.5,18.5,4.8c6.7-1,13.7-3.1,19.8-6.2c2.6-1.3,6.6-3.5,6.8-6.8
				c0.5-6-10-9.2-14.1-10.5c-5.2-1.7-10.6-3-16-3.9c-1.1-0.2-5.8-0.4-5.8,1.6c0,13.6,0,27.2,0,40.8
				C109.2,454.9,120.1,456,120.1,452.9L120.1,452.9z"/>
		</g>
	</g>
	<g class="st3">
		<g>
			<path d="M137.4,410.6c0.8,13.6,1.7,27.2,2.5,40.8c0.2,3.3,6.8,3.6,9.1,3c7.7-2.3,15.5-4.6,23.2-6.9c2.2-0.7,2.1-2.1,0.5-3.3
				c-1.8-1.4-5.5-1.7-7.7-1.1c-7.7,2.3-15.5,4.6-23.2,6.9c3,1,6,2,9.1,3c-0.8-13.6-1.7-27.2-2.5-40.8
				C148.1,408.5,137.2,407.7,137.4,410.6L137.4,410.6z"/>
		</g>
	</g>
	<g class="st3">
		<g>
			<path d="M166.5,439.1c2.5-10.2,5-20.5,7.5-30.7c-3.6-0.3-7.2-0.6-10.8-0.9c5.2,12.5,10.4,25.1,15.7,37.6c1.3,3.1,12,3.4,10.7,0.2
				c-5.2-12.5-10.4-25.1-15.7-37.6c-1.1-2.5-10-4.2-10.8-0.9c-2.5,10.2-5,20.5-7.5,30.7C154.8,440.6,165.6,442.6,166.5,439.1
				L166.5,439.1z"/>
		</g>
	</g>
	<g class="st3">
		<g>
			<path d="M165.9,435.1c4.3-0.6,8.6-1.3,12.9-1.9c1.6-0.2,4-1.1,2.4-2.9c-1.5-1.7-5.3-2.2-7.3-1.9c-4.3,0.6-8.6,1.3-12.9,1.9
				c-1.6,0.2-4,1.1-2.4,2.9C160.1,435,163.9,435.4,165.9,435.1L165.9,435.1z"/>
		</g>
	</g>
	<g class="st3">
		<g>
			<path d="M181.9,413.8c1,9,2.1,18,3.1,27c0.4,3.7,11.2,4.3,10.9,1.5c-1-9-2.1-18-3.1-27C192.4,411.6,181.6,411,181.9,413.8
				L181.9,413.8z"/>
		</g>
	</g>
	<g class="st3">
		<g>
			<path d="M203.5,446c0-10.2,0-20.5,0-30.7c-3.6-0.3-7.2-0.6-10.8-0.9c5.6,10.2,11.3,20.5,16.9,30.7c1.2,2.2,10.3,4.5,10.8,0.9
				c1.7-11.3,3.3-22.6,5-33.9c0.5-3.3-10.4-4.9-10.9-1.5c-1.7,11.3-3.3,22.6-5,33.9c3.6,0.3,7.2,0.6,10.8,0.9
				c-5.6-10.2-11.3-20.5-16.9-30.7c-1.1-2-10.8-4.4-10.8-0.9c0,10.2,0,20.5,0,30.7C192.6,448,203.5,449.1,203.5,446L203.5,446z"/>
		</g>
	</g>
	<g class="st3">
		<g>
			<path d="M276.7,413.4c-6.3-3.7-13.5-6.9-20.8-7.8c-7.4-1-18.7,2.5-14.4,12.4c3.2,7.3,14.5,8.7,21.3,9.8c1.9,0.3,8.1,0.5,8.8,1.6
				c-0.5-0.7-0.1,0.5-0.3,0.9c-0.7,1.5-2.1,2.6-3.5,3.6c-2.7,1.8-23,9.7-23,3.4c0-3.6-10.9-4.6-10.9-1.5c0,9,15.4,8.9,21.3,8.3
				c8-0.7,21.1-3,26-10.4c4.7-7-8.2-9.1-12.5-9.8c-5.3-0.9-17.4-0.6-17-8.6c0.6-9.6,12.4-2.3,16.8,0.3c2,1.2,5.4,2,7.7,1.1
				C278.1,416,278.8,414.6,276.7,413.4L276.7,413.4z"/>
		</g>
	</g>
	<g class="st3">
		<g>
			<path d="M276.1,407.7c1.7,9.5,3.3,19.1,5,28.6c0.5,3,11.3,4,10.7,0.2c-1.7-9.5-3.3-19.1-5-28.6
				C286.2,404.9,275.4,403.9,276.1,407.7L276.1,407.7z"/>
		</g>
	</g>
	<g class="st3">
		<g>
			<path d="M307.4,430c5.2,0.4,10.4,0.8,15.6,1.2c-2.1-1.3-4.2-2.5-6.3-3.8c-2.7,3.2-6,6.3-9.7,8.4c-1.4,0.8-2.8,1.2-4.3,1.8
				c-0.4,0.2-1-0.2,0.1,0.2c1.4,0.4-0.4-0.5-0.7-0.9c-3.1-3.9-4.9-8.7-5.4-13.7c-0.5-5.2,1.4-9.8,6.9-9.5c2.3,0.1,5.4,1.1,7.2,1.8
				c1.9,0.8,5.8,1.7,7.6,0.2c1.8-1.5,0.2-2.8-1.5-3.5c-7.8-3.1-23.2-7.1-29.3,1.1c-4.7,6.3-0.6,18.3,3.8,23.6
				c5.2,6.2,14.6,7.1,21.7,4.1c5.3-2.2,10.2-6.4,13.9-10.8c2.1-2.6-5.2-3.7-6.3-3.8c-5.2-0.4-10.4-0.8-15.6-1.2
				c-1.6-0.1-4.5,0.2-4.2,2.3C301.2,429.5,306,429.9,307.4,430L307.4,430z"/>
		</g>
	</g>
	<g class="st3">
		<g>
			<path d="M321.1,403.7c1.7,12.4,3.3,24.9,5,37.3c0.5,3.7,11.3,4.2,10.9,1.5c-1.7-12.4-3.3-24.9-5-37.3
				C331.5,401.6,320.7,401,321.1,403.7L321.1,403.7z"/>
		</g>
	</g>
	<g class="st3">
		<g>
			<path d="M341.3,404.4c2.1,10.8,4.2,21.6,6.3,32.4c0.6,3,11.4,4,10.7,0.2c-2.1-10.8-4.2-21.6-6.3-32.4
				C351.4,401.6,340.5,400.6,341.3,404.4L341.3,404.4z"/>
		</g>
	</g>
	<g class="st3">
		<g>
			<path d="M330.2,426.6c7.7-1.6,15.5-3.2,23.2-4.7c2.3-0.5,1.9-2.2,0.5-3.3c-2-1.5-5.4-1.6-7.7-1.1c-7.7,1.6-15.5,3.2-23.2,4.7
				c-2.3,0.5-1.9,2.2-0.5,3.3C324.4,427.1,327.9,427.1,330.2,426.6L330.2,426.6z"/>
		</g>
	</g>
	<g class="st3">
		<g>
			<path d="M357.2,414.2c9.8-0.6,19.6-1.3,29.5-1.9c1.8-0.1,3.7-1.1,2.4-2.9c-1.3-1.9-5.4-2-7.3-1.9c-9.8,0.6-19.6,1.3-29.5,1.9
				c-1.8,0.1-3.7,1.1-2.4,2.9C351.2,414.2,355.3,414.3,357.2,414.2L357.2,414.2z"/>
		</g>
	</g>
	<g class="st3">
		<g>
			<path d="M364,409.1c1.1,10,2.3,19.9,3.4,29.9c0.4,3.7,11.2,4.3,10.9,1.5c-1.1-10-2.3-19.9-3.4-29.9
				C374.5,407,363.7,406.4,364,409.1L364,409.1z"/>
		</g>
	</g>
</g>
<g id="Image_10" class="st0">
	
		<image style="display:inline;overflow:visible;" width="750" height="750" xlink:href="images10.jpg"  transform="matrix(0.48 0 0 0.48 35.5 36)">
	</image>
</g>
<g id="Image_11" class="st0">
	
		<image style="display:inline;overflow:visible;" width="750" height="750" xlink:href="images11.jpg"  transform="matrix(0.48 0 0 0.48 35.5 36)">
	</image>
</g>
<g id="Image_13" class="st0">
	
		<image style="display:inline;overflow:visible;" width="750" height="750" xlink:href="images13.jpg"  transform="matrix(0.48 0 0 0.48 35.5 36)">
	</image>
</g>
<g id="Image_14" class="st0">
	
		<image style="display:inline;overflow:visible;" width="750" height="750" xlink:href="images14.jpg"  transform="matrix(0.48 0 0 0.48 35.5 36)">
	</image>
</g>
<g id="Layer_15">
	<g>
		<path class="st4" d="M361.7,502.8l-8.6,8.6c-1.1,1.1-2.9,1.1-4,0l0,0c-1.1-1.1-1.1-2.9,0-4l8.6-8.6c1.1-1.1,2.9-1.1,4,0l0,0
			C362.9,499.9,362.9,501.7,361.7,502.8z"/>
		<ellipse class="st5" cx="374.2" cy="487.8" rx="22.1" ry="22.7"/>
		<path class="st6" d="M393,482.4l-6.9,6.9c-3.2,3.2-8.4,3.2-11.5,0l0,0c-3.2-3.2-3.2-8.4,0-11.5l6.9-6.9c3.2-3.2,8.4-3.2,11.5,0v0
			C396.2,474,396.2,479.2,393,482.4z"/>
		<circle class="st7" cx="396.1" cy="468.4" r="16.1"/>
	</g>
</g>
</svg>
