<svg id="Layer_25" data-name="Layer 25" xmlns="http://www.w3.org/2000/svg" viewBox="0 0 432 540"><defs><style>.cls-1{fill:#adadad;}.cls-2{fill:#951a1d;}.cls-3{fill:#c72026;}.cls-4{fill:#ed2224;}</style></defs><title>pin13</title><path class="cls-1" d="M345.42,61.48,339,67.94a2.13,2.13,0,0,1-3,0h0a2.13,2.13,0,0,1,0-3l6.46-6.46a2.13,2.13,0,0,1,3,0h0A2.13,2.13,0,0,1,345.42,61.48Z"/><ellipse class="cls-2" cx="354.73" cy="50.22" rx="16.6" ry="17.05"/><path class="cls-3" d="M368.85,46.16l-5.18,5.18a6.07,6.07,0,0,1-8.64,0h0a6.07,6.07,0,0,1,0-8.64l5.18-5.18a6.07,6.07,0,0,1,8.64,0h0A6.07,6.07,0,0,1,368.85,46.16Z"/><circle class="cls-4" cx="371.18" cy="35.65" r="12.09"/></svg>