<svg id="Layer_26" data-name="Layer 26" xmlns="http://www.w3.org/2000/svg" viewBox="0 0 432 540"><defs><style>.cls-1{fill:#adadad;}.cls-2{fill:#ba9624;}.cls-3{fill:#c6a222;}.cls-4{fill:#eac324;}</style></defs><title>pin10</title><path class="cls-1" d="M339.47,50.58,333,57a2.13,2.13,0,0,1-3,0h0a2.13,2.13,0,0,1,0-3l6.46-6.46a2.13,2.13,0,0,1,3,0h0A2.13,2.13,0,0,1,339.47,50.58Z"/><ellipse class="cls-2" cx="348.78" cy="39.32" rx="16.6" ry="17.05"/><path class="cls-3" d="M362.9,35.26l-5.18,5.18a6.07,6.07,0,0,1-8.64,0h0a6.07,6.07,0,0,1,0-8.64l5.18-5.18a6.07,6.07,0,0,1,8.64,0h0A6.07,6.07,0,0,1,362.9,35.26Z"/><circle class="cls-4" cx="365.22" cy="24.75" r="12.09"/></svg>