<svg id="Layer_25" data-name="Layer 25" xmlns="http://www.w3.org/2000/svg" viewBox="0 0 432 540"><defs><style>.cls-1{fill:#adadad;}.cls-2{fill:#951a1d;}.cls-3{fill:#c72026;}.cls-4{fill:#ed2224;}</style></defs><title>pin2</title><path class="cls-1" d="M126.54,46l-6.46,6.46a2.13,2.13,0,0,1-3,0h0a2.13,2.13,0,0,1,0-3L123.54,43a2.13,2.13,0,0,1,3,0h0A2.13,2.13,0,0,1,126.54,46Z"/><ellipse class="cls-2" cx="135.85" cy="34.76" rx="16.6" ry="17.05"/><path class="cls-3" d="M150,30.7l-5.18,5.18a6.07,6.07,0,0,1-8.64,0h0a6.07,6.07,0,0,1,0-8.64l5.18-5.18a6.07,6.07,0,0,1,8.64,0h0A6.07,6.07,0,0,1,150,30.7Z"/><circle class="cls-4" cx="152.3" cy="20.19" r="12.09"/></svg>