<svg id="Layer_27" data-name="Layer 27" xmlns="http://www.w3.org/2000/svg" viewBox="0 0 432 540"><defs><style>.cls-1{fill:#adadad;}.cls-2{fill:#b5b5b5;}.cls-3{fill:#c4c4c4;}.cls-4{fill:#e8e8e8;}</style></defs><title>pin4</title><path class="cls-1" d="M107.44,54.51,101,61a2.13,2.13,0,0,1-3,0h0a2.13,2.13,0,0,1,0-3l6.46-6.46a2.13,2.13,0,0,1,3,0h0A2.13,2.13,0,0,1,107.44,54.51Z"/><ellipse class="cls-2" cx="116.75" cy="43.25" rx="16.6" ry="17.05"/><path class="cls-3" d="M130.87,39.19l-5.18,5.18a6.07,6.07,0,0,1-8.64,0h0a6.07,6.07,0,0,1,0-8.64l5.18-5.18a6.07,6.07,0,0,1,8.64,0h0A6.07,6.07,0,0,1,130.87,39.19Z"/><circle class="cls-4" cx="133.2" cy="28.68" r="12.09"/></svg>