<svg id="Layer_28" data-name="Layer 28" xmlns="http://www.w3.org/2000/svg" viewBox="0 0 432 540"><defs><style>.cls-1{fill:#adadad;}.cls-2{fill:#1d7391;}.cls-3{fill:#239ac4;}.cls-4{fill:#25b6e8;}</style></defs><title>pin5</title><path class="cls-1" d="M393.15,39.92l-6.46,6.46a2.13,2.13,0,0,1-3,0h0a2.13,2.13,0,0,1,0-3l6.46-6.46a2.13,2.13,0,0,1,3,0h0A2.13,2.13,0,0,1,393.15,39.92Z"/><ellipse class="cls-2" cx="402.46" cy="28.66" rx="16.6" ry="17.05"/><path class="cls-3" d="M416.58,24.6l-5.18,5.18a6.07,6.07,0,0,1-8.64,0h0a6.07,6.07,0,0,1,0-8.64L407.95,16a6.07,6.07,0,0,1,8.64,0h0A6.07,6.07,0,0,1,416.58,24.6Z"/><circle class="cls-4" cx="418.91" cy="14.09" r="12.09"/></svg>