<svg id="Layer_27" data-name="Layer 27" xmlns="http://www.w3.org/2000/svg" viewBox="0 0 432 540"><defs><style>.cls-1{fill:#adadad;}.cls-2{fill:#b5b5b5;}.cls-3{fill:#c4c4c4;}.cls-4{fill:#e8e8e8;}</style></defs><title>pin8</title><path class="cls-1" d="M78.91,77l-6.46,6.46a2.13,2.13,0,0,1-3,0h0a2.13,2.13,0,0,1,0-3L75.9,74a2.13,2.13,0,0,1,3,0h0A2.13,2.13,0,0,1,78.91,77Z"/><ellipse class="cls-2" cx="88.22" cy="65.75" rx="16.6" ry="17.05"/><path class="cls-3" d="M102.33,61.69l-5.18,5.18a6.07,6.07,0,0,1-8.64,0h0a6.07,6.07,0,0,1,0-8.64l5.18-5.18a6.07,6.07,0,0,1,8.64,0h0A6.07,6.07,0,0,1,102.33,61.69Z"/><circle class="cls-4" cx="104.66" cy="51.18" r="12.09"/></svg>