<?xml version="1.0" encoding="utf-8"?>
<!-- Generator: Adobe Illustrator 21.1.0, SVG Export Plug-In . SVG Version: 6.00 Build 0)  -->
<svg version="1.1" id="Layer_25" xmlns="http://www.w3.org/2000/svg" xmlns:xlink="http://www.w3.org/1999/xlink" x="0px" y="0px"
	 viewBox="0 0 432 540" style="enable-background:new 0 0 432 540;" xml:space="preserve">
<style type="text/css">
	.st0{fill:#ADADAD;}
	.st1{fill:#951A1D;}
	.st2{fill:#C72026;}
	.st3{fill:#ED2224;}
</style>
<title>pin9</title>
<path class="st0" d="M70,65.8l-6.5,6.5c-0.8,0.8-2.2,0.8-3,0l0,0c-0.8-0.8-0.8-2.2,0-3l6.5-6.5c0.8-0.8,2.2-0.8,3,0l0,0
	C70.8,63.6,70.8,64.9,70,65.8z"/>
<ellipse class="st1" cx="79.3" cy="54.5" rx="16.6" ry="17"/>
<path class="st2" d="M93.5,50.4l-5.2,5.2c-2.4,2.4-6.2,2.4-8.6,0.1c0,0,0,0-0.1-0.1l0,0c-2.4-2.4-2.4-6.2-0.1-8.6c0,0,0,0,0.1-0.1
	l5.1-5.2c2.3-2.4,6.2-2.4,8.6-0.1c0,0,0.1,0.1,0.1,0.1l0,0C95.8,44.2,95.9,48,93.5,50.4C93.5,50.4,93.5,50.4,93.5,50.4z"/>
<circle class="st3" cx="95.8" cy="39.9" r="12.1"/>
</svg>
