<?xml version="1.0" encoding="utf-8"?>
<!-- Generator: Adobe Illustrator 22.1.0, SVG Export Plug-In . SVG Version: 6.00 Build 0)  -->
<svg version="1.1" id="Layer_1" xmlns="http://www.w3.org/2000/svg" xmlns:xlink="http://www.w3.org/1999/xlink" x="0px" y="0px"
	 viewBox="0 0 432 540" style="enable-background:new 0 0 432 540;" xml:space="preserve">
<style type="text/css">
	.st0{fill:#FFD8E0;}
	.st1{fill:#F4F4F4;}
</style>
<rect x="32.5" y="51.5" class="st0" width="366" height="336"/>
<rect class="st1" width="432" height="540"/>
<image style="overflow:visible;" width="750" height="750" xlink:href="images but they&apos;re numbered but images/images.jpg"  transform="matrix(0.48 0 0 0.48 36 36)">
</image>
<image style="display:none;overflow:visible;" width="750" height="750" xlink:href="images but they&apos;re numbered but images/images2.jpg"  transform="matrix(0.48 0 0 0.48 35.5 36)">
</image>
<image style="display:none;overflow:visible;" width="750" height="750" xlink:href="images but they&apos;re numbered but images/images3.jpg"  transform="matrix(0.48 0 0 0.48 35.5 36)">
</image>
<image style="display:none;overflow:visible;" width="750" height="750" xlink:href="images but they&apos;re numbered but images/images4.jpg"  transform="matrix(0.48 0 0 0.48 35.5 36)">
</image>
<image style="display:none;overflow:visible;" width="750" height="750" xlink:href="images but they&apos;re numbered but images/images5.jpg"  transform="matrix(0.48 0 0 0.48 35.5 36)">
</image>
<image style="display:none;overflow:visible;" width="750" height="750" xlink:href="images but they&apos;re numbered but images/images6.jpg"  transform="matrix(0.48 0 0 0.48 35.5 36)">
</image>
<image style="display:none;overflow:visible;" width="750" height="750" xlink:href="images but they&apos;re numbered but images/images7.jpg"  transform="matrix(0.48 0 0 0.48 35.5 36)">
</image>
<image style="display:none;overflow:visible;" width="750" height="750" xlink:href="images but they&apos;re numbered but images/images8.jpg"  transform="matrix(0.48 0 0 0.48 35.5 36)">
</image>
<image style="display:none;overflow:visible;" width="750" height="750" xlink:href="images but they&apos;re numbered but images/images9.jpg"  transform="matrix(0.48 0 0 0.48 35.5 36)">
</image>
<image style="display:none;overflow:visible;" width="750" height="750" xlink:href="images but they&apos;re numbered but images/images10.jpg"  transform="matrix(0.48 0 0 0.48 35.5 36)">
</image>
<image style="display:none;overflow:visible;" width="750" height="750" xlink:href="images but they&apos;re numbered but images/images11.jpg"  transform="matrix(0.48 0 0 0.48 35.5 36)">
</image>
<image style="display:none;overflow:visible;" width="750" height="750" xlink:href="images but they&apos;re numbered but images/images13.jpg"  transform="matrix(0.48 0 0 0.48 35.5 36)">
</image>
<image style="display:none;overflow:visible;" width="750" height="750" xlink:href="images but they&apos;re numbered but images/images14.jpg"  transform="matrix(0.48 0 0 0.48 35.5 36)">
</image>
</svg>
